<?xml version="1.0" encoding="UTF-8" standalone="yes"?>
<svg xmlns="http://www.w3.org/2000/svg" xmlns:xlink="http://www.w3.org/1999/xlink" width="500px" height="500px" viewBox="0 0 500 500" version="1.1">
  <g id="surface0">
    <path style=" stroke:none;fill-rule:nonzero;fill:rgb(0.392157%,0.392157%,0.392157%);fill-opacity:1;" d="M 193.75 161.804688 L 193.75 161.804688 C 190.972656 159.027344 186.804688 159.027344 184.027344 161.804688 L 120.140625 225.695312 C 117.359375 228.472656 117.359375 232.640625 120.140625 235.417969 L 120.140625 235.417969 C 122.917969 238.195312 127.082031 238.195312 129.859375 235.417969 L 193.75 171.527344 C 196.527344 168.75 196.527344 164.582031 193.75 161.804688 Z M 193.75 161.804688 "/>
    <path style=" stroke:none;fill-rule:nonzero;fill:rgb(0.392157%,0.392157%,0.392157%);fill-opacity:1;" d="M 184.027344 161.804688 L 184.027344 161.804688 C 181.25 164.582031 181.25 168.75 184.027344 171.527344 L 247.917969 235.417969 C 250.695312 238.195312 254.859375 238.195312 257.640625 235.417969 L 257.640625 235.417969 C 260.417969 232.640625 260.417969 228.472656 257.640625 225.695312 L 193.75 161.804688 C 190.972656 159.027344 186.804688 159.027344 184.027344 161.804688 Z M 184.027344 161.804688 "/>
    <path style=" stroke:none;fill-rule:nonzero;fill:rgb(0.392157%,0.392157%,0.392157%);fill-opacity:1;" d="M 375.695312 306.25 C 375.695312 309.722656 372.917969 313.195312 368.75 313.195312 L 368.75 313.195312 L 244.445312 313.195312 C 209.722656 313.195312 181.945312 285.417969 181.945312 250.695312 L 181.945312 170.140625 L 195.832031 170.140625 L 195.832031 250.695312 C 195.832031 277.777344 217.359375 299.304688 244.445312 299.304688 L 368.75 299.304688 L 368.75 299.304688 C 372.222656 299.304688 375.695312 302.082031 375.695312 306.25 Z M 375.695312 306.25 "/>
  </g>
</svg>