<?xml version="1.0" encoding="UTF-8" standalone="yes"?>
<svg xmlns="http://www.w3.org/2000/svg" xmlns:xlink="http://www.w3.org/1999/xlink" width="500px" height="500px" viewBox="0 0 500 500" version="1.1">
  <g id="surface0">
    <path style=" stroke:none;fill-rule:nonzero;fill:rgb(0.392157%,0.392157%,0.392157%);fill-opacity:1;" d="M 193.75 338.890625 L 193.75 338.890625 C 190.972656 341.667969 186.804688 341.667969 184.027344 338.890625 L 120.140625 275 C 117.359375 272.222656 117.359375 268.054688 120.140625 265.277344 L 120.140625 265.277344 C 122.917969 262.5 127.082031 262.5 129.859375 265.277344 L 193.75 329.167969 C 196.527344 331.25 196.527344 336.109375 193.75 338.890625 Z M 193.75 338.890625 "/>
    <path style=" stroke:none;fill-rule:nonzero;fill:rgb(0.392157%,0.392157%,0.392157%);fill-opacity:1;" d="M 184.027344 338.890625 L 184.027344 338.890625 C 181.25 336.109375 181.25 331.945312 184.027344 329.167969 L 247.917969 265.277344 C 250.695312 262.5 254.859375 262.5 257.640625 265.277344 L 257.640625 265.277344 C 260.417969 268.054688 260.417969 272.222656 257.640625 275 L 193.75 338.890625 C 190.972656 341.667969 186.804688 341.667969 184.027344 338.890625 Z M 184.027344 338.890625 "/>
    <path style=" stroke:none;fill-rule:nonzero;fill:rgb(0.392157%,0.392157%,0.392157%);fill-opacity:1;" d="M 375.695312 194.445312 C 375.695312 190.972656 372.917969 187.5 368.75 187.5 L 368.75 187.5 L 244.445312 187.5 C 209.722656 187.5 181.945312 215.277344 181.945312 250 L 181.945312 330.554688 L 195.832031 330.554688 L 195.832031 250 C 195.832031 222.917969 217.359375 201.390625 244.445312 201.390625 L 368.75 201.390625 L 368.75 201.390625 C 372.222656 201.390625 375.695312 198.609375 375.695312 194.445312 Z M 375.695312 194.445312 "/>
  </g>
</svg>