<?xml version="1.0" encoding="UTF-8" standalone="yes"?>
<svg xmlns="http://www.w3.org/2000/svg" xmlns:xlink="http://www.w3.org/1999/xlink" width="500px" height="500px" viewBox="0 0 500 500" version="1.1">
  <g id="surface0">
    <path style=" stroke:none;fill-rule:nonzero;fill:rgb(0.392157%,0.392157%,0.392157%);fill-opacity:1;" d="M 240.972656 371.527344 L 240.972656 371.527344 C 235.417969 365.972656 235.417969 357.640625 240.972656 352.082031 L 338.890625 254.167969 C 344.445312 248.609375 352.777344 248.609375 358.332031 254.167969 L 358.332031 254.167969 C 363.890625 259.722656 363.890625 268.054688 358.332031 273.609375 L 260.417969 371.527344 C 254.859375 377.082031 245.832031 377.082031 240.972656 371.527344 Z M 240.972656 371.527344 "/>
    <path style=" stroke:none;fill-rule:nonzero;fill:rgb(0.392157%,0.392157%,0.392157%);fill-opacity:1;" d="M 240.972656 371.527344 L 142.359375 273.609375 C 136.804688 268.054688 136.804688 259.722656 142.359375 254.167969 L 142.359375 254.167969 C 147.917969 248.609375 156.25 248.609375 161.804688 254.167969 L 259.722656 352.082031 C 265.277344 357.640625 265.277344 365.972656 259.722656 371.527344 L 259.722656 371.527344 C 254.859375 377.082031 245.832031 377.082031 240.972656 371.527344 Z M 240.972656 371.527344 "/>
    <path style=" stroke:none;fill-rule:nonzero;fill:rgb(0.392157%,0.392157%,0.392157%);fill-opacity:1;" d="M 250.695312 361.109375 L 250.695312 361.109375 C 243.054688 361.109375 236.804688 354.859375 236.804688 347.222656 L 236.804688 138.890625 C 236.804688 131.25 243.054688 125 250.695312 125 L 250.695312 125 C 258.332031 125 264.582031 131.25 264.582031 138.890625 L 264.582031 347.222656 C 264.582031 354.859375 258.332031 361.109375 250.695312 361.109375 Z M 250.695312 361.109375 "/>
  </g>
</svg>