<?xml version="1.0" encoding="UTF-8" standalone="yes"?>
<svg xmlns="http://www.w3.org/2000/svg" xmlns:xlink="http://www.w3.org/1999/xlink" width="500px" height="500px" viewBox="0 0 500 500" version="1.1">
  <g id="surface0">
    <path style=" stroke:none;fill-rule:nonzero;fill:rgb(0.392157%,0.392157%,0.392157%);fill-opacity:1;" d="M 240.972656 129.167969 L 240.972656 129.167969 C 235.417969 134.722656 235.417969 143.054688 240.972656 148.609375 L 338.890625 246.527344 C 344.445312 252.082031 352.777344 252.082031 358.332031 246.527344 L 358.332031 246.527344 C 363.890625 240.972656 363.890625 232.640625 358.332031 227.082031 L 260.417969 129.167969 C 254.859375 123.609375 245.832031 123.609375 240.972656 129.167969 Z M 240.972656 129.167969 "/>
    <path style=" stroke:none;fill-rule:nonzero;fill:rgb(0.392157%,0.392157%,0.392157%);fill-opacity:1;" d="M 240.972656 129.167969 L 142.359375 227.082031 C 136.804688 232.640625 136.804688 240.972656 142.359375 246.527344 L 142.359375 246.527344 C 147.917969 252.082031 156.25 252.082031 161.804688 246.527344 L 259.722656 148.609375 C 265.277344 143.054688 265.277344 134.722656 259.722656 129.167969 L 259.722656 129.167969 C 254.859375 123.609375 245.832031 123.609375 240.972656 129.167969 Z M 240.972656 129.167969 "/>
    <path style=" stroke:none;fill-rule:nonzero;fill:rgb(0.392157%,0.392157%,0.392157%);fill-opacity:1;" d="M 250.695312 139.582031 L 250.695312 139.582031 C 243.054688 139.582031 236.804688 145.832031 236.804688 153.472656 L 236.804688 361.804688 C 236.804688 369.445312 243.054688 375.695312 250.695312 375.695312 L 250.695312 375.695312 C 258.332031 375.695312 264.582031 369.445312 264.582031 361.804688 L 264.582031 153.472656 C 264.582031 145.832031 258.332031 139.582031 250.695312 139.582031 Z M 250.695312 139.582031 "/>
  </g>
</svg>