<?xml version="1.0" encoding="UTF-8" standalone="yes"?>
<svg xmlns="http://www.w3.org/2000/svg" xmlns:xlink="http://www.w3.org/1999/xlink" width="500px" height="500px" viewBox="0 0 500 500" version="1.1">
  <g id="surface0">
    <path style=" stroke:none;fill-rule:nonzero;fill:rgb(0.392157%,0.392157%,0.392157%);fill-opacity:1;" d="M 300 338.890625 L 300 338.890625 C 302.777344 341.667969 306.945312 341.667969 309.722656 338.890625 L 373.609375 275 C 376.390625 272.222656 376.390625 268.054688 373.609375 265.277344 L 373.609375 265.277344 C 370.832031 262.5 366.667969 262.5 363.890625 265.277344 L 300 329.167969 C 297.222656 331.25 297.222656 336.109375 300 338.890625 Z M 300 338.890625 "/>
    <path style=" stroke:none;fill-rule:nonzero;fill:rgb(0.392157%,0.392157%,0.392157%);fill-opacity:1;" d="M 309.722656 338.890625 L 309.722656 338.890625 C 312.5 336.109375 312.5 331.945312 309.722656 329.167969 L 245.832031 265.277344 C 243.054688 262.5 238.890625 262.5 236.109375 265.277344 L 236.109375 265.277344 C 233.332031 268.054688 233.332031 272.222656 236.109375 275 L 300 338.890625 C 302.777344 341.667969 306.945312 341.667969 309.722656 338.890625 Z M 309.722656 338.890625 "/>
    <path style=" stroke:none;fill-rule:nonzero;fill:rgb(0.392157%,0.392157%,0.392157%);fill-opacity:1;" d="M 118.054688 194.445312 C 118.054688 190.972656 120.832031 187.5 125 187.5 L 125 187.5 L 249.304688 187.5 C 284.027344 187.5 311.804688 215.277344 311.804688 250 L 311.804688 330.554688 L 297.917969 330.554688 L 297.917969 250 C 297.917969 222.917969 276.390625 201.390625 249.304688 201.390625 L 125 201.390625 L 125 201.390625 C 121.527344 201.390625 118.054688 198.609375 118.054688 194.445312 Z M 118.054688 194.445312 "/>
  </g>
</svg>