<?xml version="1.0" encoding="UTF-8" standalone="yes"?>
<svg xmlns="http://www.w3.org/2000/svg" xmlns:xlink="http://www.w3.org/1999/xlink" width="500px" height="500px" viewBox="0 0 500 500" version="1.1">
  <g id="surface0">
    <path style=" stroke:none;fill-rule:nonzero;fill:rgb(0.392157%,0.392157%,0.392157%);fill-opacity:1;" d="M 129.167969 240.277344 L 129.167969 240.277344 C 134.722656 234.722656 143.054688 234.722656 148.609375 240.277344 L 246.527344 338.195312 C 252.082031 343.75 252.082031 352.082031 246.527344 357.640625 L 246.527344 357.640625 C 240.972656 363.195312 232.640625 363.195312 227.082031 357.640625 L 129.167969 260.417969 C 123.609375 254.859375 123.609375 245.832031 129.167969 240.277344 Z M 129.167969 240.277344 "/>
    <path style=" stroke:none;fill-rule:nonzero;fill:rgb(0.392157%,0.392157%,0.392157%);fill-opacity:1;" d="M 129.167969 240.277344 L 227.082031 142.359375 C 232.640625 136.804688 240.972656 136.804688 246.527344 142.359375 L 246.527344 142.359375 C 252.082031 147.917969 252.082031 156.25 246.527344 161.804688 L 148.609375 260.417969 C 143.054688 265.972656 134.722656 265.972656 129.167969 260.417969 L 129.167969 260.417969 C 123.609375 254.859375 123.609375 245.832031 129.167969 240.277344 Z M 129.167969 240.277344 "/>
    <path style=" stroke:none;fill-rule:nonzero;fill:rgb(0.392157%,0.392157%,0.392157%);fill-opacity:1;" d="M 139.582031 250 L 139.582031 250 C 139.582031 242.359375 145.832031 236.109375 153.472656 236.109375 L 361.804688 236.109375 C 369.445312 236.109375 375.695312 242.359375 375.695312 250 L 375.695312 250 C 375.695312 257.640625 369.445312 263.890625 361.804688 263.890625 L 153.472656 263.890625 C 145.832031 263.890625 139.582031 257.640625 139.582031 250 Z M 139.582031 250 "/>
  </g>
</svg>