<?xml version="1.0" encoding="UTF-8" standalone="yes"?>
<svg xmlns="http://www.w3.org/2000/svg" xmlns:xlink="http://www.w3.org/1999/xlink" width="500px" height="500px" viewBox="0 0 500 500" version="1.1">
  <g id="surface0">
    <path style=" stroke:none;fill-rule:nonzero;fill:rgb(0.392157%,0.392157%,0.392157%);fill-opacity:1;" d="M 300 161.804688 L 300 161.804688 C 302.777344 159.027344 306.945312 159.027344 309.722656 161.804688 L 373.609375 225.695312 C 376.390625 228.472656 376.390625 232.640625 373.609375 235.417969 L 373.609375 235.417969 C 370.832031 238.195312 366.667969 238.195312 363.890625 235.417969 L 300 171.527344 C 297.222656 168.75 297.222656 164.582031 300 161.804688 Z M 300 161.804688 "/>
    <path style=" stroke:none;fill-rule:nonzero;fill:rgb(0.392157%,0.392157%,0.392157%);fill-opacity:1;" d="M 309.722656 161.804688 L 309.722656 161.804688 C 312.5 164.582031 312.5 168.75 309.722656 171.527344 L 245.832031 235.417969 C 243.054688 238.195312 238.890625 238.195312 236.109375 235.417969 L 236.109375 235.417969 C 233.332031 232.640625 233.332031 228.472656 236.109375 225.695312 L 300 161.804688 C 302.777344 159.027344 306.945312 159.027344 309.722656 161.804688 Z M 309.722656 161.804688 "/>
    <path style=" stroke:none;fill-rule:nonzero;fill:rgb(0.392157%,0.392157%,0.392157%);fill-opacity:1;" d="M 118.054688 306.25 C 118.054688 309.722656 120.832031 313.195312 125 313.195312 L 125 313.195312 L 249.304688 313.195312 C 284.027344 313.195312 311.804688 285.417969 311.804688 250.695312 L 311.804688 170.140625 L 297.917969 170.140625 L 297.917969 250.695312 C 297.917969 277.777344 276.390625 299.304688 249.304688 299.304688 L 125 299.304688 L 125 299.304688 C 121.527344 299.304688 118.054688 302.082031 118.054688 306.25 Z M 118.054688 306.25 "/>
  </g>
</svg>