<?xml version="1.0" encoding="UTF-8" standalone="yes"?>
<svg xmlns="http://www.w3.org/2000/svg" xmlns:xlink="http://www.w3.org/1999/xlink" width="500px" height="500px" viewBox="0 0 500 500" version="1.1">
  <g id="surface0">
    <path style=" stroke:none;fill-rule:nonzero;fill:rgb(0.392157%,0.392157%,0.392157%);fill-opacity:1;" d="M 372.222656 240.277344 L 372.222656 240.277344 C 366.667969 234.722656 358.332031 234.722656 352.777344 240.277344 L 254.167969 338.890625 C 248.609375 344.445312 248.609375 352.777344 254.167969 358.332031 L 254.167969 358.332031 C 259.722656 363.890625 268.054688 363.890625 273.609375 358.332031 L 371.527344 260.417969 C 377.082031 254.859375 377.082031 245.832031 372.222656 240.277344 Z M 372.222656 240.277344 "/>
    <path style=" stroke:none;fill-rule:nonzero;fill:rgb(0.392157%,0.392157%,0.392157%);fill-opacity:1;" d="M 372.222656 240.277344 L 273.609375 142.359375 C 268.054688 136.804688 259.722656 136.804688 254.167969 142.359375 L 254.167969 142.359375 C 248.609375 147.917969 248.609375 156.25 254.167969 161.804688 L 352.082031 259.722656 C 357.640625 265.277344 365.972656 265.277344 371.527344 259.722656 L 371.527344 259.722656 C 377.082031 254.859375 377.082031 245.832031 372.222656 240.277344 Z M 372.222656 240.277344 "/>
    <path style=" stroke:none;fill-rule:nonzero;fill:rgb(0.392157%,0.392157%,0.392157%);fill-opacity:1;" d="M 361.109375 250 L 361.109375 250 C 361.109375 242.359375 354.859375 236.109375 347.222656 236.109375 L 138.890625 236.109375 C 131.25 236.109375 125 242.359375 125 250 L 125 250 C 125 257.640625 131.25 263.890625 138.890625 263.890625 L 347.222656 263.890625 C 354.859375 263.890625 361.109375 257.640625 361.109375 250 Z M 361.109375 250 "/>
  </g>
</svg>