<?xml version="1.0" encoding="UTF-8" standalone="yes"?>
<svg xmlns="http://www.w3.org/2000/svg" xmlns:xlink="http://www.w3.org/1999/xlink" width="500px" height="500px" viewBox="0 0 500 500" version="1.1">
  <g id="surface0">
    <path style=" stroke:none;fill-rule:nonzero;fill:rgb(0.392157%,0.392157%,0.392157%);fill-opacity:1;" d="M 215.277344 354.167969 C 215.277344 373.609375 230.554688 388.890625 250 388.890625 C 269.445312 388.890625 284.722656 373.609375 284.722656 354.167969 L 215.277344 354.167969 Z M 215.277344 354.167969 "/>
    <path style=" stroke:none;fill-rule:nonzero;fill:rgb(0.392157%,0.392157%,0.392157%);fill-opacity:1;" d="M 330.554688 251.390625 L 330.554688 215.277344 C 330.554688 178.472656 304.859375 147.222656 270.140625 138.890625 C 270.832031 136.804688 271.527344 134.027344 271.527344 131.945312 C 271.527344 120.140625 262.5 111.109375 250.695312 111.109375 C 238.890625 111.109375 229.859375 120.140625 229.859375 131.945312 C 229.859375 134.722656 230.554688 136.804688 231.25 138.890625 C 196.527344 147.222656 170.832031 178.472656 170.832031 215.277344 L 170.832031 251.390625 C 170.832031 282.640625 152.777344 306.945312 126.390625 319.445312 L 126.390625 340.277344 L 376.390625 340.277344 L 376.390625 319.445312 C 348.609375 306.945312 330.554688 282.640625 330.554688 251.390625 Z M 330.554688 251.390625 "/>
  </g>
</svg>