<?xml version="1.0" encoding="utf-8"?>
<!-- Generator: Adobe Illustrator 19.1.0, SVG Export Plug-In . SVG Version: 6.00 Build 0)  -->
<svg version="1.1" id="Layer_1" xmlns="http://www.w3.org/2000/svg" xmlns:xlink="http://www.w3.org/1999/xlink" x="0px" y="0px"
	 viewBox="0 0 500 500" style="enable-background:new 0 0 500 500;" xml:space="preserve">
<g>
	<path d="M187.1,260.4c32.5,0,59,26.5,59,59s-26.5,59-59,59s-59-26.5-59-59S154.5,260.4,187.1,260.4 M187.1,246.5
		c-40.3,0-72.9,32.6-72.9,72.9s32.6,72.9,72.9,72.9s72.9-32.6,72.9-72.9S227.3,246.5,187.1,246.5L187.1,246.5z"/>
	<g>
		<g>
			<path d="M158.6,349.1v-6.7c6.3-2.8,11.9-8.8,11.9-15.9c0-1.9-0.1-3.5-0.4-5.4h-10.5v-8.5h9.1c-0.5-2.8-1.1-6.1-1.1-9.3
				c0-12.3,9.2-20.3,22.2-20.3c5.7,0,9.7,1.2,12,2.5l-2.3,9.3c-2-1.1-5.1-2-9.2-2c-7.8,0-10.6,5-10.6,10.8c0,3.4,0.5,6.1,1.2,9h14.8
				v8.5H182c0.1,3.1,0.1,6.1-0.7,8.9c-1.1,3.4-3.2,6.3-6.1,8.8v0.2h29.6v10.1H158.6z"/>
		</g>
	</g>
	<rect x="180.6" y="159.5" width="69.4" height="13.9"/>
	<rect x="312.1" y="312.5" width="34.7" height="13.9"/>
	<path d="M353.7,125H173.2c-15.3,0-27.8,12.5-27.8,27.8v27.8v13.9v42.3v4.6c4.4-2.4,9.1-4.3,13.9-5.9v-27.1H201v23.8
		c4.8,0.8,9.4,1.8,13.9,3.3v-27.1h97.2v28.4h-93.5c8.8,3.4,17,8,24.2,13.9h69.3v27.1h-46.9c2.4,4.4,4.3,9.1,5.9,13.9h96.5v41.7
		c0,7.7-6.2,13.9-13.9,13.9h-82.6c-1.6,4.8-3.6,9.5-5.9,13.9h5.2h41.7H326h27.8c15.3,0,27.8-12.5,27.8-27.8v-27.8v-13.9v-41v-13.9
		v-42.3v-13.9v-27.8C381.5,137.5,369,125,353.7,125z M367.6,277.8H326v-27.1h41.7V277.8z M367.6,236.8H326v-28.4h41.7V236.8z
		 M367.6,194.4H159.3v-41.7c0-7.7,6.2-13.9,13.9-13.9h180.6c7.7,0,13.9,6.2,13.9,13.9V194.4z"/>
</g>
</svg>
