<?xml version="1.0" encoding="utf-8"?>
<!-- Generator: Adobe Illustrator 19.1.0, SVG Export Plug-In . SVG Version: 6.00 Build 0)  -->
<svg version="1.1" id="Layer_1" xmlns="http://www.w3.org/2000/svg" xmlns:xlink="http://www.w3.org/1999/xlink" x="0px" y="0px"
	 viewBox="0 0 500 500" style="enable-background:new 0 0 500 500;" xml:space="preserve">
<path d="M354.2,166.7h-55.6v-6.9c0-15.3-12.5-27.8-27.8-27.8h-41.7c-15.3,0-27.8,12.5-27.8,27.8v6.9h-55.6
	c-15.3,0-27.8,12.5-27.8,27.8v125c0,15.3,12.5,27.8,27.8,27.8h208.3c15.3,0,27.8-12.5,27.8-27.8v-125
	C381.9,179.2,369.4,166.7,354.2,166.7z M215.3,159.7c0-7.7,6.2-13.9,13.9-13.9h41.7c7.7,0,13.9,6.2,13.9,13.9v6.9h-69.4V159.7z
	 M145.8,180.6h208.3c7.7,0,13.9,6.2,13.9,13.9v29.7l-76.4,17.4v-5.3c0-7.6-6.2-13.9-13.9-13.9h-55.6c-7.6,0-13.9,6.2-13.9,13.9v6.2
	l-76.4-17.4v-30.6C131.9,186.8,138.2,180.6,145.8,180.6z M277.8,236.2V264h-55.6v-27.8H277.8z M354.2,333.3H145.8
	c-7.7,0-13.9-6.2-13.9-13.9v-80.2l76.4,17.4v7.4c0,7.6,6.2,13.9,13.9,13.9h55.6c7.6,0,13.9-6.2,13.9-13.9v-8.3l76.4-17.4v81.1
	C368.1,327.1,361.8,333.3,354.2,333.3z"/>
</svg>
