<?xml version="1.0" encoding="utf-8"?>
<!-- Generator: Adobe Illustrator 21.0.0, SVG Export Plug-In . SVG Version: 6.00 Build 0)  -->
<!DOCTYPE svg PUBLIC "-//W3C//DTD SVG 1.1//EN" "http://www.w3.org/Graphics/SVG/1.1/DTD/svg11.dtd">
<svg version="1.1" id="Layer_1" xmlns="http://www.w3.org/2000/svg" xmlns:xlink="http://www.w3.org/1999/xlink" x="0px" y="0px"
	 width="500px" height="500px" viewBox="0 0 500 500" enable-background="new 0 0 500 500" xml:space="preserve">
<path d="M343.5,145.8H156.2v13.9H170v34.7v13.9v145.8h3.3h10.6h34.7h10.2h3.7v-48.6h34.7v48.6h3.3h10.6h34.7h10.2h3.7V208.3v-13.9
	v-34.7h13.8V145.8z M232.5,194.4v-34.7h34.7v34.7H232.5z M267.2,208.3V243h-34.7v-34.7H267.2z M183.9,159.7h34.7v34.7h-34.7V159.7z
	 M218.6,208.3V243h-34.7v-34.7H218.6z M183.9,256.9h34.7v34.7h-34.7V256.9z M218.6,340.2h-34.7v-34.7h34.7V340.2z M232.5,291.6
	v-34.7h34.7v34.7H232.5z M281.1,256.9h34.7v34.7h-34.7V256.9z M281.1,340.2v-34.7h34.7v34.7H281.1z M315.8,243h-34.7v-34.7h34.7V243
	z M315.8,194.4h-34.7v-34.7h34.7V194.4z"/>
</svg>
