<?xml version="1.0" encoding="UTF-8" standalone="yes"?>
<svg xmlns="http://www.w3.org/2000/svg" xmlns:xlink="http://www.w3.org/1999/xlink" width="500px" height="500px" viewBox="0 0 500 500" version="1.1">
  <g id="surface0">
    <path style=" stroke:none;fill-rule:nonzero;fill:rgb(0%,0%,0%);fill-opacity:1;" d="M 320.140625 215.277344 L 314.582031 215.277344 C 315.277344 219.445312 315.972656 224.304688 315.972656 229.167969 C 315.972656 229.167969 315.972656 229.167969 315.972656 229.167969 L 320.140625 229.167969 C 343.054688 229.167969 361.804688 247.917969 361.804688 270.832031 C 361.804688 293.75 343.054688 312.5 320.140625 312.5 L 253.472656 312.5 C 230.554688 312.5 211.804688 293.75 211.804688 270.832031 C 211.804688 247.917969 230.554688 229.167969 253.472656 229.167969 L 274.304688 229.167969 C 274.304688 229.167969 274.304688 229.167969 274.304688 229.167969 C 274.304688 224.304688 273.609375 219.445312 272.222656 215.277344 L 254.167969 215.277344 C 223.609375 215.277344 198.609375 240.277344 198.609375 270.832031 C 198.609375 301.390625 223.609375 326.390625 254.167969 326.390625 L 320.832031 326.390625 C 351.390625 326.390625 376.390625 301.390625 376.390625 270.832031 C 376.390625 240.277344 350.695312 215.277344 320.140625 215.277344 Z M 320.140625 215.277344 "/>
    <path style=" stroke:none;fill-rule:nonzero;fill:rgb(0%,0%,0%);fill-opacity:1;" d="M 182.640625 270.832031 L 180.554688 270.832031 C 157.640625 270.832031 138.890625 252.082031 138.890625 229.167969 C 138.890625 206.25 157.640625 187.5 180.554688 187.5 L 246.527344 187.5 C 269.445312 187.5 288.195312 206.25 288.195312 229.167969 C 288.195312 252.082031 269.445312 270.832031 246.527344 270.832031 L 225.695312 270.832031 C 225.695312 270.832031 225.695312 270.832031 225.695312 270.832031 C 225.695312 275.695312 226.390625 280.554688 227.777344 284.722656 L 245.832031 284.722656 C 276.390625 284.722656 301.390625 259.722656 301.390625 229.167969 L 301.390625 229.167969 C 301.390625 198.609375 276.390625 173.609375 245.832031 173.609375 L 180.554688 173.609375 C 150 173.609375 125 198.609375 125 229.167969 L 125 229.167969 C 125 259.722656 150 284.722656 180.554688 284.722656 L 184.027344 284.722656 C 183.332031 280.554688 182.640625 275.695312 182.640625 270.832031 C 182.640625 270.832031 182.640625 270.832031 182.640625 270.832031 Z M 182.640625 270.832031 "/>
  </g>
</svg>