<?xml version="1.0" encoding="utf-8"?>
<!-- Generator: Adobe Illustrator 21.0.0, SVG Export Plug-In . SVG Version: 6.00 Build 0)  -->
<!DOCTYPE svg PUBLIC "-//W3C//DTD SVG 1.1//EN" "http://www.w3.org/Graphics/SVG/1.1/DTD/svg11.dtd">
<svg version="1.1" id="Layer_1" xmlns="http://www.w3.org/2000/svg" xmlns:xlink="http://www.w3.org/1999/xlink" x="0px" y="0px"
	 width="500px" height="500px" viewBox="0 0 500 500" enable-background="new 0 0 500 500" xml:space="preserve">
<g>
	<path fill="#231F20" d="M219.2,160.8c-3.3-1.9-7.5-1-9.3,2.1l-15.1,26.1l-8.2-10.7c-2.3-3-6.7-3.6-9.7-1.3l0,0
		c-3,2.3-3.6,6.7-1.3,9.7l14.5,18.9c1.4,1.8,3.5,2.7,5.6,2.7c2.3,0.1,4.6-1.1,5.8-3.1l20.4-35.3
		C223.7,166.9,222.5,162.8,219.2,160.8z"/>
	<rect x="242.5" y="173.3" fill="#231F20" width="83.6" height="14.9"/>
	<path fill="#231F20" d="M219.2,223.3c-3.3-1.9-7.5-1-9.3,2.1l-15.1,26.1l-8.2-10.7c-2.3-3-6.7-3.6-9.7-1.3l0,0
		c-3,2.3-3.6,6.7-1.3,9.7l14.5,18.9c1.4,1.8,3.5,2.7,5.6,2.7c2.3,0.1,4.6-1.1,5.8-3.1l20.4-35.3
		C223.7,229.4,222.5,225.3,219.2,223.3z"/>
	<rect x="242.5" y="242.8" fill="#231F20" width="83.6" height="14.9"/>
	<rect x="242.9" y="308.3" fill="#231F20" width="83.6" height="14.9"/>
	<path fill="#231F20" d="M208.3,305.3C208.3,305.3,208.3,305.3,208.3,305.3C208.4,305.3,208.4,305.3,208.3,305.3l0,20.8c0,0,0,0,0,0
		l-20.8,0c0,0,0,0,0,0c0,0,0,0,0,0l0-20.8c0,0,0,0,0,0H208.3 M208.4,291.4h-20.8c-7.6,0-13.9,6.2-13.9,13.9v20.8
		c0,7.6,6.2,13.9,13.9,13.9h20.8c7.6,0,13.9-6.2,13.9-13.9v-20.8C222.2,297.7,216,291.4,208.4,291.4L208.4,291.4z"/>
	<path fill="#231F20" d="M340.6,131.8c7.7,0,13.9,6.2,13.9,13.9V354c0,7.7-6.2,13.9-13.9,13.9H160c-7.7,0-13.9-6.2-13.9-13.9V145.7
		c0-7.7,6.2-13.9,13.9-13.9H340.6 M340.6,117.9H160c-15.3,0-27.8,12.5-27.8,27.8V354c0,15.3,12.5,27.8,27.8,27.8h180.6
		c15.3,0,27.8-12.5,27.8-27.8V145.7C368.3,130.4,355.8,117.9,340.6,117.9L340.6,117.9z"/>
</g>
</svg>
