<?xml version="1.0" encoding="UTF-8" standalone="yes"?>
<svg xmlns="http://www.w3.org/2000/svg" xmlns:xlink="http://www.w3.org/1999/xlink" width="500px" height="500px" viewBox="0 0 500 500" version="1.1">
  <g id="surface0">
    <path style=" stroke:none;fill-rule:nonzero;fill:rgb(0.392157%,0.392157%,0.392157%);fill-opacity:1;" d="M 250 102.777344 C 330.554688 102.777344 397.222656 169.445312 397.222656 250 C 397.222656 330.554688 330.554688 397.222656 250 397.222656 C 169.445312 397.222656 102.777344 330.554688 102.777344 250 C 102.777344 169.445312 169.445312 102.777344 250 102.777344 M 250 83.332031 C 157.640625 83.332031 83.332031 157.640625 83.332031 250 C 83.332031 342.359375 157.640625 416.667969 250 416.667969 C 342.359375 416.667969 416.667969 342.359375 416.667969 250 C 416.667969 157.640625 342.359375 83.332031 250 83.332031 L 250 83.332031 Z M 250 83.332031 "/>
    <path style=" stroke:none;fill-rule:nonzero;fill:rgb(0.392157%,0.392157%,0.392157%);fill-opacity:1;" d="M 184.027344 242.359375 L 184.027344 242.359375 C 188.195312 238.195312 195.140625 238.195312 200 242.359375 L 286.109375 328.472656 C 290.277344 332.640625 290.277344 339.582031 286.109375 344.445312 L 286.109375 344.445312 C 281.945312 348.609375 275 348.609375 270.140625 344.445312 L 184.027344 257.640625 C 179.859375 253.472656 179.859375 246.527344 184.027344 242.359375 Z M 184.027344 242.359375 "/>
    <path style=" stroke:none;fill-rule:nonzero;fill:rgb(0.392157%,0.392157%,0.392157%);fill-opacity:1;" d="M 184.027344 242.359375 L 270.140625 156.25 C 274.304688 152.082031 281.25 152.082031 286.109375 156.25 L 286.109375 156.25 C 290.277344 160.417969 290.277344 167.359375 286.109375 172.222656 L 200 257.640625 C 195.832031 261.804688 188.890625 261.804688 184.027344 257.640625 L 184.027344 257.640625 C 179.859375 253.472656 179.859375 246.527344 184.027344 242.359375 Z M 184.027344 242.359375 "/>
  </g>
</svg>