<?xml version="1.0" encoding="UTF-8" standalone="yes"?>
<svg xmlns="http://www.w3.org/2000/svg" xmlns:xlink="http://www.w3.org/1999/xlink" width="500px" height="500px" viewBox="0 0 500 500" version="1.1">
  <g id="surface0">
    <path style=" stroke:none;fill-rule:nonzero;fill:rgb(0.392157%,0.392157%,0.392157%);fill-opacity:1;" d="M 170.140625 240.277344 L 170.140625 240.277344 C 175.695312 234.722656 184.027344 234.722656 189.582031 240.277344 L 297.917969 348.609375 C 303.472656 354.167969 303.472656 362.5 297.917969 368.054688 L 297.917969 368.054688 C 292.359375 373.609375 284.027344 373.609375 278.472656 368.054688 L 170.140625 259.722656 C 164.582031 254.167969 164.582031 245.832031 170.140625 240.277344 Z M 170.140625 240.277344 "/>
    <path style=" stroke:none;fill-rule:nonzero;fill:rgb(0.392157%,0.392157%,0.392157%);fill-opacity:1;" d="M 170.140625 240.277344 L 278.472656 131.945312 C 284.027344 126.390625 292.359375 126.390625 297.917969 131.945312 L 297.917969 131.945312 C 303.472656 137.5 303.472656 145.832031 297.917969 151.390625 L 190.277344 259.722656 C 184.722656 265.277344 176.390625 265.277344 170.832031 259.722656 L 170.832031 259.722656 C 164.582031 254.167969 164.582031 245.832031 170.140625 240.277344 Z M 170.140625 240.277344 "/>
  </g>
</svg>