<?xml version="1.0" encoding="UTF-8" standalone="yes"?>
<svg xmlns="http://www.w3.org/2000/svg" xmlns:xlink="http://www.w3.org/1999/xlink" width="500px" height="500px" viewBox="0 0 500 500" version="1.1">
  <g id="surface0">
    <path style=" stroke:none;fill-rule:nonzero;fill:rgb(0.392157%,0.392157%,0.392157%);fill-opacity:1;" d="M 250 83.332031 C 157.640625 83.332031 83.332031 157.640625 83.332031 250 C 83.332031 342.359375 157.640625 416.667969 250 416.667969 C 342.359375 416.667969 416.667969 342.359375 416.667969 250 C 416.667969 157.640625 342.359375 83.332031 250 83.332031 Z M 343.054688 290.972656 C 338.890625 295.140625 331.945312 295.140625 327.082031 290.972656 L 249.304688 212.5 L 170.832031 290.972656 C 166.667969 295.140625 159.722656 295.140625 154.859375 290.972656 C 150.695312 286.804688 150.695312 279.859375 154.859375 275 L 240.972656 188.890625 C 245.140625 184.722656 252.082031 184.722656 256.945312 188.890625 L 343.054688 275 C 347.917969 279.859375 347.917969 286.804688 343.054688 290.972656 Z M 343.054688 290.972656 "/>
  </g>
</svg>