<?xml version="1.0" encoding="UTF-8" standalone="yes"?>
<svg xmlns="http://www.w3.org/2000/svg" xmlns:xlink="http://www.w3.org/1999/xlink" width="500px" height="500px" viewBox="0 0 500 500" version="1.1">
  <g id="surface0">
    <path style=" stroke:none;fill-rule:nonzero;fill:rgb(0.392157%,0.392157%,0.392157%);fill-opacity:1;" d="M 250 83.332031 C 157.640625 83.332031 83.332031 157.640625 83.332031 250 C 83.332031 342.359375 157.640625 416.667969 250 416.667969 C 342.359375 416.667969 416.667969 342.359375 416.667969 250 C 416.667969 157.640625 342.359375 83.332031 250 83.332031 Z M 343.054688 228.472656 L 256.945312 314.582031 C 252.777344 318.75 245.832031 318.75 240.972656 314.582031 L 155.554688 228.472656 C 151.390625 224.304688 151.390625 217.359375 155.554688 212.5 C 159.722656 208.332031 166.667969 208.332031 171.527344 212.5 L 250 290.972656 L 328.472656 212.5 C 332.640625 208.332031 339.582031 208.332031 344.445312 212.5 C 347.917969 217.359375 347.917969 224.304688 343.054688 228.472656 Z M 343.054688 228.472656 "/>
  </g>
</svg>