<?xml version="1.0" encoding="UTF-8" standalone="yes"?>
<svg xmlns="http://www.w3.org/2000/svg" xmlns:xlink="http://www.w3.org/1999/xlink" width="500px" height="500px" viewBox="0 0 500 500" version="1.1">
  <g id="surface0">
    <path style=" stroke:none;fill-rule:nonzero;fill:rgb(0.392157%,0.392157%,0.392157%);fill-opacity:1;" d="M 250 102.777344 C 330.554688 102.777344 397.222656 169.445312 397.222656 250 C 397.222656 330.554688 330.554688 397.222656 250 397.222656 C 169.445312 397.222656 102.777344 330.554688 102.777344 250 C 102.777344 169.445312 169.445312 102.777344 250 102.777344 M 250 83.332031 C 157.640625 83.332031 83.332031 157.640625 83.332031 250 C 83.332031 342.359375 157.640625 416.667969 250 416.667969 C 342.359375 416.667969 416.667969 342.359375 416.667969 250 C 416.667969 157.640625 342.359375 83.332031 250 83.332031 L 250 83.332031 Z M 250 83.332031 "/>
    <path style=" stroke:none;fill-rule:nonzero;fill:rgb(0.392157%,0.392157%,0.392157%);fill-opacity:1;" d="M 314.582031 257.640625 L 314.582031 257.640625 C 310.417969 261.804688 303.472656 261.804688 298.609375 257.640625 L 213.195312 171.527344 C 209.027344 167.359375 209.027344 160.417969 213.195312 155.554688 L 213.195312 155.554688 C 217.359375 151.390625 224.304688 151.390625 229.167969 155.554688 L 315.277344 241.667969 C 319.445312 246.527344 319.445312 253.472656 314.582031 257.640625 Z M 314.582031 257.640625 "/>
    <path style=" stroke:none;fill-rule:nonzero;fill:rgb(0.392157%,0.392157%,0.392157%);fill-opacity:1;" d="M 314.582031 257.640625 L 228.472656 343.75 C 224.304688 347.917969 217.359375 347.917969 212.5 343.75 L 212.5 343.75 C 208.332031 339.582031 208.332031 332.640625 212.5 327.777344 L 298.609375 241.667969 C 302.777344 237.5 309.722656 237.5 314.582031 241.667969 L 314.582031 241.667969 C 319.445312 246.527344 319.445312 253.472656 314.582031 257.640625 Z M 314.582031 257.640625 "/>
  </g>
</svg>