<?xml version="1.0" encoding="UTF-8" standalone="yes"?>
<svg xmlns="http://www.w3.org/2000/svg" xmlns:xlink="http://www.w3.org/1999/xlink" width="500px" height="500px" viewBox="0 0 500 500" version="1.1">
  <g id="surface0">
    <path style=" stroke:none;fill-rule:nonzero;fill:rgb(0.392157%,0.392157%,0.392157%);fill-opacity:1;" d="M 250 102.777344 C 330.554688 102.777344 397.222656 169.445312 397.222656 250 C 397.222656 330.554688 330.554688 397.222656 250 397.222656 C 169.445312 397.222656 102.777344 330.554688 102.777344 250 C 102.777344 169.445312 169.445312 102.777344 250 102.777344 M 250 83.332031 C 157.640625 83.332031 83.332031 157.640625 83.332031 250 C 83.332031 342.359375 157.640625 416.667969 250 416.667969 C 342.359375 416.667969 416.667969 342.359375 416.667969 250 C 416.667969 157.640625 342.359375 83.332031 250 83.332031 L 250 83.332031 Z M 250 83.332031 "/>
    <path style=" stroke:none;fill-rule:nonzero;fill:rgb(0.392157%,0.392157%,0.392157%);fill-opacity:1;" d="M 256.945312 189.582031 L 256.945312 189.582031 C 261.109375 193.75 261.109375 200.695312 256.945312 205.554688 L 170.832031 290.972656 C 166.667969 295.140625 159.722656 295.140625 154.859375 290.972656 L 154.859375 290.972656 C 150.695312 286.804688 150.695312 279.859375 154.859375 275 L 240.972656 188.890625 C 245.832031 184.722656 252.777344 184.722656 256.945312 189.582031 Z M 256.945312 189.582031 "/>
    <path style=" stroke:none;fill-rule:nonzero;fill:rgb(0.392157%,0.392157%,0.392157%);fill-opacity:1;" d="M 256.945312 189.582031 L 343.054688 275.695312 C 347.222656 279.859375 347.222656 286.804688 343.054688 291.667969 L 343.054688 291.667969 C 338.890625 295.832031 331.945312 295.832031 327.082031 291.667969 L 241.667969 204.859375 C 237.5 200.695312 237.5 193.75 241.667969 188.890625 L 241.667969 188.890625 C 245.832031 184.722656 252.777344 184.722656 256.945312 189.582031 Z M 256.945312 189.582031 "/>
  </g>
</svg>