<?xml version="1.0" encoding="UTF-8" standalone="yes"?>
<svg xmlns="http://www.w3.org/2000/svg" xmlns:xlink="http://www.w3.org/1999/xlink" width="500px" height="500px" viewBox="0 0 500 500" version="1.1">
  <g id="surface0">
    <path style=" stroke:none;fill-rule:nonzero;fill:rgb(0.392157%,0.392157%,0.392157%);fill-opacity:1;" d="M 250 83.332031 C 157.640625 83.332031 83.332031 157.640625 83.332031 250 C 83.332031 342.359375 157.640625 416.667969 250 416.667969 C 342.359375 416.667969 416.667969 342.359375 416.667969 250 C 416.667969 157.640625 342.359375 83.332031 250 83.332031 Z M 286.109375 328.472656 C 290.277344 332.640625 290.277344 339.582031 286.109375 344.445312 C 281.945312 348.609375 275 348.609375 270.140625 344.445312 L 184.027344 257.640625 C 179.859375 253.472656 179.859375 246.527344 184.027344 241.667969 L 270.140625 155.554688 C 274.304688 151.390625 281.25 151.390625 286.109375 155.554688 C 290.277344 159.722656 290.277344 166.667969 286.109375 171.527344 L 207.640625 250 L 286.109375 328.472656 Z M 286.109375 328.472656 "/>
  </g>
</svg>