<?xml version="1.0" encoding="UTF-8" standalone="yes"?>
<svg xmlns="http://www.w3.org/2000/svg" xmlns:xlink="http://www.w3.org/1999/xlink" width="500px" height="500px" viewBox="0 0 500 500" version="1.1">
  <g id="surface0">
    <path style=" stroke:none;fill-rule:nonzero;fill:rgb(0.392157%,0.392157%,0.392157%);fill-opacity:1;" d="M 250 102.777344 C 330.554688 102.777344 397.222656 169.445312 397.222656 250 C 397.222656 330.554688 330.554688 397.222656 250 397.222656 C 169.445312 397.222656 102.777344 330.554688 102.777344 250 C 102.777344 169.445312 169.445312 102.777344 250 102.777344 M 250 83.332031 C 157.640625 83.332031 83.332031 157.640625 83.332031 250 C 83.332031 342.359375 157.640625 416.667969 250 416.667969 C 342.359375 416.667969 416.667969 342.359375 416.667969 250 C 416.667969 157.640625 342.359375 83.332031 250 83.332031 L 250 83.332031 Z M 250 83.332031 "/>
    <path style=" stroke:none;fill-rule:nonzero;fill:rgb(0.392157%,0.392157%,0.392157%);fill-opacity:1;" d="M 241.667969 314.582031 L 241.667969 314.582031 C 237.5 310.417969 237.5 303.472656 241.667969 298.609375 L 327.777344 212.5 C 331.945312 208.332031 338.890625 208.332031 343.75 212.5 L 343.75 212.5 C 347.917969 216.667969 347.917969 223.609375 343.75 228.472656 L 256.945312 314.582031 C 252.777344 319.445312 245.832031 319.445312 241.667969 314.582031 Z M 241.667969 314.582031 "/>
    <path style=" stroke:none;fill-rule:nonzero;fill:rgb(0.392157%,0.392157%,0.392157%);fill-opacity:1;" d="M 241.667969 314.582031 L 155.554688 228.472656 C 151.390625 224.304688 151.390625 217.359375 155.554688 212.5 L 155.554688 212.5 C 159.722656 208.332031 166.667969 208.332031 171.527344 212.5 L 256.945312 299.304688 C 261.109375 303.472656 261.109375 310.417969 256.945312 315.277344 L 256.945312 315.277344 C 252.777344 319.445312 245.832031 319.445312 241.667969 314.582031 Z M 241.667969 314.582031 "/>
  </g>
</svg>