<?xml version="1.0" encoding="UTF-8" standalone="yes"?>
<svg xmlns="http://www.w3.org/2000/svg" xmlns:xlink="http://www.w3.org/1999/xlink" width="500px" height="500px" viewBox="0 0 500 500" version="1.1">
  <g id="surface0">
    <path style=" stroke:none;fill-rule:nonzero;fill:rgb(0.392157%,0.392157%,0.392157%);fill-opacity:1;" d="M 329.859375 258.332031 L 329.859375 258.332031 C 324.304688 263.890625 315.972656 263.890625 310.417969 258.332031 L 202.082031 150.695312 C 196.527344 145.140625 196.527344 136.804688 202.082031 131.25 L 202.082031 131.25 C 207.640625 125.695312 215.972656 125.695312 221.527344 131.25 L 329.859375 239.582031 C 335.417969 244.445312 335.417969 252.777344 329.859375 258.332031 Z M 329.859375 258.332031 "/>
    <path style=" stroke:none;fill-rule:nonzero;fill:rgb(0.392157%,0.392157%,0.392157%);fill-opacity:1;" d="M 329.859375 258.332031 L 221.527344 366.667969 C 215.972656 372.222656 207.640625 372.222656 202.082031 366.667969 L 202.082031 366.667969 C 196.527344 361.109375 196.527344 352.777344 202.082031 347.222656 L 310.417969 238.890625 C 315.972656 233.332031 324.304688 233.332031 329.859375 238.890625 L 329.859375 238.890625 C 335.417969 244.445312 335.417969 252.777344 329.859375 258.332031 Z M 329.859375 258.332031 "/>
  </g>
</svg>