<?xml version="1.0" encoding="UTF-8" standalone="yes"?>
<svg xmlns="http://www.w3.org/2000/svg" xmlns:xlink="http://www.w3.org/1999/xlink" width="500px" height="500px" viewBox="0 0 500 500" version="1.1">
  <g id="surface0">
    <path style=" stroke:none;fill-rule:nonzero;fill:rgb(0.392157%,0.392157%,0.392157%);fill-opacity:1;" d="M 259.722656 173.609375 L 259.722656 173.609375 C 265.277344 179.167969 265.277344 187.5 259.722656 193.054688 L 152.082031 301.390625 C 146.527344 306.945312 138.195312 306.945312 132.640625 301.390625 L 132.640625 301.390625 C 127.082031 295.832031 127.082031 287.5 132.640625 281.945312 L 240.277344 173.609375 C 245.832031 168.054688 254.167969 168.054688 259.722656 173.609375 Z M 259.722656 173.609375 "/>
    <path style=" stroke:none;fill-rule:nonzero;fill:rgb(0.392157%,0.392157%,0.392157%);fill-opacity:1;" d="M 259.722656 173.609375 L 368.054688 281.945312 C 373.609375 287.5 373.609375 295.832031 368.054688 301.390625 L 368.054688 301.390625 C 362.5 306.945312 354.167969 306.945312 348.609375 301.390625 L 240.277344 193.75 C 234.722656 188.195312 234.722656 179.859375 240.277344 174.304688 L 240.277344 174.304688 C 245.832031 168.054688 254.167969 168.054688 259.722656 173.609375 Z M 259.722656 173.609375 "/>
  </g>
</svg>