<?xml version="1.0" encoding="UTF-8" standalone="yes"?>
<svg xmlns="http://www.w3.org/2000/svg" xmlns:xlink="http://www.w3.org/1999/xlink" width="500px" height="500px" viewBox="0 0 500 500" version="1.1">
  <g id="surface0">
    <path style=" stroke:none;fill-rule:nonzero;fill:rgb(0.392157%,0.392157%,0.392157%);fill-opacity:1;" d="M 240.277344 326.390625 L 240.277344 326.390625 C 234.722656 320.832031 234.722656 312.5 240.277344 306.945312 L 348.609375 198.609375 C 354.167969 193.054688 362.5 193.054688 368.054688 198.609375 L 368.054688 198.609375 C 373.609375 204.167969 373.609375 212.5 368.054688 218.054688 L 259.722656 326.390625 C 254.167969 331.945312 245.832031 331.945312 240.277344 326.390625 Z M 240.277344 326.390625 "/>
    <path style=" stroke:none;fill-rule:nonzero;fill:rgb(0.392157%,0.392157%,0.392157%);fill-opacity:1;" d="M 240.277344 326.390625 L 131.945312 218.054688 C 126.390625 212.5 126.390625 204.167969 131.945312 198.609375 L 131.945312 198.609375 C 137.5 193.054688 145.832031 193.054688 151.390625 198.609375 L 259.722656 306.945312 C 265.277344 312.5 265.277344 320.832031 259.722656 326.390625 L 259.722656 326.390625 C 254.167969 331.945312 245.832031 331.945312 240.277344 326.390625 Z M 240.277344 326.390625 "/>
  </g>
</svg>