<?xml version="1.0" encoding="utf-8"?>
<!-- Generator: Adobe Illustrator 19.0.0, SVG Export Plug-In . SVG Version: 6.00 Build 0)  -->
<!DOCTYPE svg PUBLIC "-//W3C//DTD SVG 1.1//EN" "http://www.w3.org/Graphics/SVG/1.1/DTD/svg11.dtd">
<svg version="1.1" id="Layer_1" xmlns="http://www.w3.org/2000/svg" xmlns:xlink="http://www.w3.org/1999/xlink" x="0px" y="0px"
	 width="500px" height="500px" viewBox="0 0 500 500" enable-background="new 0 0 500 500" xml:space="preserve">
<g>
	<path id="XMLID_8_" fill="#010101" d="M294.2,328.4c-2.7-2.7-7.1-2.7-9.8,0l-27.5,27.5V247.6c0-3.8-3.1-6.9-6.9-6.9
		s-6.9,3.1-6.9,6.9v108.3l-27.5-27.5c-2.7-2.7-7.1-2.7-9.8,0s-2.7,7.1,0,9.8l39.3,39.3c1.4,1.4,3.2,2,4.9,2c1.8,0,3.6-0.7,4.9-2
		l39.3-39.3C296.9,335.5,296.9,331.1,294.2,328.4z"/>
	<path id="XMLID_1_" fill="#010101" d="M329.8,194.7c-10-33.2-40.7-57.4-77.1-57.4c-36.3,0-67,24-77,57c-27.9,1-50.3,23.8-50.3,52
		c0,28.8,23.3,52.1,52.1,52.1h45.1v-13.9h-45.1c-21.1,0-38.2-17.1-38.2-38.2c0-20.7,16.2-37.4,36.9-38.1l9.9-0.3l2.9-9.5
		c8.6-28.2,34.2-47.2,63.8-47.2c29.2,0,55.5,19.5,63.8,47.5l2.6,8.7l9,1.1c19,2.4,33.4,18.7,33.4,37.8c0,21.1-17.1,38.2-38.2,38.2
		h-45.1v13.9h45.1c28.8,0,52.1-23.3,52.1-52.1C375.3,219.8,355.5,198,329.8,194.7z"/>
</g>
</svg>
