<?xml version="1.0" encoding="utf-8"?>
<!-- Generator: Adobe Illustrator 19.0.0, SVG Export Plug-In . SVG Version: 6.00 Build 0)  -->
<!DOCTYPE svg PUBLIC "-//W3C//DTD SVG 1.1//EN" "http://www.w3.org/Graphics/SVG/1.1/DTD/svg11.dtd">
<svg version="1.1" id="Layer_1" xmlns="http://www.w3.org/2000/svg" xmlns:xlink="http://www.w3.org/1999/xlink" x="0px" y="0px"
	 width="500px" height="500px" viewBox="0 0 500 500" enable-background="new 0 0 500 500" xml:space="preserve">
<g>
	<path id="XMLID_6_" fill="#010101" d="M293.1,258.1l-39.3-39.3c-1.4-1.4-3.2-2-4.9-2c-1.8,0-3.6,0.7-4.9,2l-39.3,39.3
		c-2.7,2.7-2.7,7.1,0,9.8s7.1,2.7,9.8,0l27.5-27.5v108.3c0,3.8,3.1,6.9,6.9,6.9c3.8,0,6.9-3.1,6.9-6.9V240.5l27.5,27.5
		c2.7,2.7,7.1,2.7,9.8,0h0C295.8,265.3,295.8,260.9,293.1,258.1z"/>
	<path id="XMLID_1_" fill="#010101" d="M328.7,208.2c-10-33.2-40.7-57.4-77.1-57.4c-36.3,0-67,24-77,57c-27.9,1-50.3,23.8-50.3,52
		c0,28.8,23.3,52.1,52.1,52.1h45.1V298h-45.1c-21.1,0-38.2-17.1-38.2-38.2c0-20.7,16.2-37.4,36.9-38.1l9.9-0.3l2.9-9.5
		c8.6-28.2,34.2-47.2,63.8-47.2c29.2,0,55.5,19.5,63.8,47.5l2.6,8.7l9,1.1c19,2.4,33.4,18.7,33.4,37.8c0,21.1-17.1,38.2-38.2,38.2
		H277v13.9h45.1c28.8,0,52.1-23.3,52.1-52.1C374.2,233.3,354.4,211.4,328.7,208.2z"/>
</g>
</svg>
