<?xml version="1.0" encoding="UTF-8" standalone="yes"?>
<svg xmlns="http://www.w3.org/2000/svg" xmlns:xlink="http://www.w3.org/1999/xlink" width="500px" height="500px" viewBox="0 0 500 500" version="1.1">
  <g id="surface0">
    <path style=" stroke:none;fill-rule:nonzero;fill:rgb(0.392157%,0.392157%,0.392157%);fill-opacity:1;" d="M 250 83.332031 C 158.332031 83.332031 83.332031 158.332031 83.332031 250 C 83.332031 341.667969 158.332031 416.667969 250 416.667969 C 341.667969 416.667969 416.667969 341.667969 416.667969 250 C 416.667969 158.332031 341.667969 83.332031 250 83.332031 Z M 315.277344 315.277344 C 313.195312 317.359375 309.722656 318.75 306.25 318.75 C 302.777344 318.75 300 317.359375 297.222656 315.277344 L 250 267.359375 L 202.777344 314.582031 C 200.695312 316.667969 197.222656 318.054688 193.75 318.054688 C 190.277344 318.054688 187.5 316.667969 184.722656 314.582031 C 179.859375 309.722656 179.859375 302.082031 184.722656 297.222656 L 231.945312 250 L 184.722656 202.777344 C 179.859375 197.917969 179.859375 190.277344 184.722656 185.417969 C 189.582031 180.554688 197.222656 180.554688 202.082031 185.417969 L 249.304688 232.640625 L 296.527344 185.417969 C 301.390625 180.554688 309.027344 180.554688 313.890625 185.417969 C 318.75 190.277344 318.75 197.917969 313.890625 202.777344 L 267.359375 250 L 315.277344 297.222656 C 319.445312 302.082031 319.445312 310.417969 315.277344 315.277344 Z M 315.277344 315.277344 "/>
  </g>
</svg>