<?xml version="1.0" encoding="UTF-8" standalone="yes"?>
<svg xmlns="http://www.w3.org/2000/svg" xmlns:xlink="http://www.w3.org/1999/xlink" width="500px" height="500px" viewBox="0 0 500 500" version="1.1">
  <g id="surface0">
    <path style=" stroke:none;fill-rule:nonzero;fill:rgb(0.392157%,0.392157%,0.392157%);fill-opacity:1;" d="M 250 102.777344 C 330.554688 102.777344 397.222656 169.445312 397.222656 250 C 397.222656 330.554688 330.554688 397.222656 250 397.222656 C 169.445312 397.222656 102.777344 330.554688 102.777344 250 C 102.777344 169.445312 169.445312 102.777344 250 102.777344 M 250 83.332031 C 157.640625 83.332031 83.332031 157.640625 83.332031 250 C 83.332031 342.359375 157.640625 416.667969 250 416.667969 C 342.359375 416.667969 416.667969 342.359375 416.667969 250 C 416.667969 157.640625 342.359375 83.332031 250 83.332031 L 250 83.332031 Z M 250 83.332031 "/>
    <path style=" stroke:none;fill-rule:nonzero;fill:rgb(0.392157%,0.392157%,0.392157%);fill-opacity:1;" d="M 312.5 187.5 L 312.5 187.5 C 316.667969 191.667969 316.667969 197.222656 312.5 201.390625 L 201.390625 312.5 C 197.222656 316.667969 191.667969 316.667969 187.5 312.5 L 187.5 312.5 C 183.332031 308.332031 183.332031 302.777344 187.5 298.609375 L 298.609375 187.5 C 302.082031 184.027344 308.332031 184.027344 312.5 187.5 Z M 312.5 187.5 "/>
    <path style=" stroke:none;fill-rule:nonzero;fill:rgb(0.392157%,0.392157%,0.392157%);fill-opacity:1;" d="M 187.5 187.5 L 187.5 187.5 C 191.667969 183.332031 197.222656 183.332031 201.390625 187.5 L 312.5 298.609375 C 316.667969 302.777344 316.667969 308.332031 312.5 312.5 L 312.5 312.5 C 308.332031 316.667969 302.777344 316.667969 298.609375 312.5 L 187.5 201.390625 C 184.027344 197.917969 184.027344 191.667969 187.5 187.5 Z M 187.5 187.5 "/>
  </g>
</svg>