<?xml version="1.0" encoding="UTF-8" standalone="yes"?>
<svg xmlns="http://www.w3.org/2000/svg" xmlns:xlink="http://www.w3.org/1999/xlink" width="500px" height="500px" viewBox="0 0 500 500" version="1.1">
  <g id="surface0">
    <path style=" stroke:none;fill-rule:nonzero;fill:rgb(0.392157%,0.392157%,0.392157%);fill-opacity:1;" d="M 250 83.332031 C 158.332031 83.332031 83.332031 158.332031 83.332031 250 C 83.332031 341.667969 158.332031 416.667969 250 416.667969 C 341.667969 416.667969 416.667969 341.667969 416.667969 250 C 416.667969 158.332031 341.667969 83.332031 250 83.332031 Z M 250 392.359375 C 171.527344 392.359375 107.640625 328.472656 107.640625 250 C 107.640625 171.527344 171.527344 107.640625 250 107.640625 C 328.472656 107.640625 392.359375 171.527344 392.359375 250 C 392.359375 328.472656 328.472656 392.359375 250 392.359375 Z M 250 392.359375 "/>
    <path style=" stroke:none;fill-rule:nonzero;fill:rgb(0.392157%,0.392157%,0.392157%);fill-opacity:1;" d="M 267.359375 250 L 314.582031 202.777344 C 319.445312 197.917969 319.445312 190.277344 314.582031 185.417969 C 309.722656 180.554688 302.082031 180.554688 297.222656 185.417969 L 250 232.640625 L 202.777344 185.417969 C 197.917969 180.554688 190.277344 180.554688 185.417969 185.417969 C 180.554688 190.277344 180.554688 197.917969 185.417969 202.777344 L 232.640625 250 L 185.417969 297.222656 C 180.554688 302.082031 180.554688 309.722656 185.417969 314.582031 C 187.5 316.667969 190.972656 318.054688 194.445312 318.054688 C 197.917969 318.054688 200.695312 316.667969 203.472656 314.582031 L 250.695312 267.359375 L 298.609375 314.582031 C 300.695312 316.667969 304.167969 318.054688 307.640625 318.054688 C 311.109375 318.054688 313.890625 316.667969 316.667969 314.582031 C 321.527344 309.722656 321.527344 302.082031 316.667969 297.222656 L 267.359375 250 Z M 267.359375 250 "/>
  </g>
</svg>