<?xml version="1.0" encoding="UTF-8" standalone="yes"?>
<svg xmlns="http://www.w3.org/2000/svg" xmlns:xlink="http://www.w3.org/1999/xlink" width="500px" height="500px" viewBox="0 0 500 500" version="1.1">
  <g id="surface0">
    <path style=" stroke:none;fill-rule:nonzero;fill:rgb(0.392157%,0.392157%,0.392157%);fill-opacity:1;" d="M 161.804688 161.804688 L 161.804688 161.804688 C 167.359375 156.25 175.695312 156.25 181.25 161.804688 L 338.195312 318.75 C 343.75 324.304688 343.75 332.640625 338.195312 338.195312 L 338.195312 338.195312 C 332.640625 343.75 324.304688 343.75 318.75 338.195312 L 161.804688 181.25 C 156.25 175.695312 156.25 167.359375 161.804688 161.804688 Z M 161.804688 161.804688 "/>
    <path style=" stroke:none;fill-rule:nonzero;fill:rgb(0.392157%,0.392157%,0.392157%);fill-opacity:1;" d="M 161.804688 318.75 L 318.75 161.804688 C 324.304688 156.25 332.640625 156.25 338.195312 161.804688 L 338.195312 161.804688 C 343.75 167.359375 343.75 175.695312 338.195312 181.25 L 181.25 338.195312 C 175.695312 343.75 167.359375 343.75 161.804688 338.195312 L 161.804688 338.195312 C 156.25 332.640625 156.25 324.304688 161.804688 318.75 Z M 161.804688 318.75 "/>
  </g>
</svg>