<?xml version="1.0" encoding="UTF-8" standalone="yes"?>
<svg xmlns="http://www.w3.org/2000/svg" xmlns:xlink="http://www.w3.org/1999/xlink" width="500px" height="500px" viewBox="0 0 500 500" version="1.1">
  <g id="surface0">
    <path style=" stroke:none;fill-rule:nonzero;fill:rgb(0.392157%,0.392157%,0.392157%);fill-opacity:1;" d="M 294.445312 313.890625 L 186.109375 205.554688 C 180.554688 200 180.554688 191.667969 186.109375 186.109375 L 186.109375 186.109375 C 191.667969 180.554688 200 180.554688 205.554688 186.109375 L 313.890625 294.445312 C 319.445312 300 319.445312 308.332031 313.890625 313.890625 L 313.890625 313.890625 C 308.332031 319.445312 299.304688 319.445312 294.445312 313.890625 Z M 294.445312 313.890625 "/>
    <path style=" stroke:none;fill-rule:nonzero;fill:rgb(0.392157%,0.392157%,0.392157%);fill-opacity:1;" d="M 186.109375 294.445312 L 294.445312 186.109375 C 300 180.554688 308.332031 180.554688 313.890625 186.109375 L 313.890625 186.109375 C 319.445312 191.667969 319.445312 200 313.890625 205.554688 L 205.554688 313.890625 C 200 319.445312 191.667969 319.445312 186.109375 313.890625 L 186.109375 313.890625 C 180.554688 308.332031 180.554688 299.304688 186.109375 294.445312 Z M 186.109375 294.445312 "/>
    <path style=" stroke:none;fill-rule:nonzero;fill:rgb(0.392157%,0.392157%,0.392157%);fill-opacity:1;" d="M 250 111.109375 C 326.390625 111.109375 388.890625 173.609375 388.890625 250 C 388.890625 326.390625 326.390625 388.890625 250 388.890625 C 173.609375 388.890625 111.109375 326.390625 111.109375 250 C 111.109375 173.609375 173.609375 111.109375 250 111.109375 M 250 83.332031 C 157.640625 83.332031 83.332031 157.640625 83.332031 250 C 83.332031 342.359375 157.640625 416.667969 250 416.667969 C 342.359375 416.667969 416.667969 342.359375 416.667969 250 C 416.667969 157.640625 342.359375 83.332031 250 83.332031 L 250 83.332031 Z M 250 83.332031 "/>
  </g>
</svg>