<?xml version="1.0" encoding="UTF-8" standalone="yes"?>
<svg xmlns="http://www.w3.org/2000/svg" xmlns:xlink="http://www.w3.org/1999/xlink" width="500px" height="500px" viewBox="0 0 500 500" version="1.1">
  <g id="surface0">
    <path style=" stroke:none;fill-rule:nonzero;fill:rgb(0%,0%,0%);fill-opacity:1;" d="M 254.167969 265.277344 C 254.167969 265.277344 253.472656 265.277344 253.472656 265.972656 C 252.777344 265.972656 252.777344 266.667969 252.082031 266.667969 C 250 267.359375 247.917969 266.667969 245.832031 265.277344 L 126.390625 179.859375 C 125.691406 181.941406 125 184.722656 125 187.5 L 125 312.5 C 125 327.777344 137.5 340.277344 152.777344 340.277344 L 347.222656 340.277344 C 362.5 340.277344 375 327.777344 375 312.5 L 375 187.5 C 375 184.722656 374.308594 181.941406 373.609375 179.167969 L 254.167969 265.277344 C 254.167969 265.277344 254.167969 265.277344 254.167969 265.277344 Z M 254.167969 265.277344 "/>
    <path style=" stroke:none;fill-rule:nonzero;fill:rgb(0%,0%,0%);fill-opacity:1;" d="M 365.277344 166.667969 C 360.417969 162.5 354.167969 159.722656 347.222656 159.722656 L 152.777344 159.722656 C 145.832031 159.722656 139.582031 162.5 134.722656 166.667969 L 250 250 L 365.277344 166.667969 Z M 365.277344 166.667969 "/>
    <path style=" stroke:none;fill-rule:nonzero;fill:rgb(0%,0%,0%);fill-opacity:1;" d="M 252.777344 265.972656 C 252.777344 265.972656 253.472656 265.972656 253.472656 265.277344 C 253.472656 265.277344 253.472656 265.972656 252.777344 265.972656 Z M 252.777344 265.972656 "/>
  </g>
</svg>