<?xml version="1.0" encoding="UTF-8" standalone="yes"?>
<svg xmlns="http://www.w3.org/2000/svg" xmlns:xlink="http://www.w3.org/1999/xlink" width="500px" height="500px" viewBox="0 0 500 500" version="1.1">
  <g id="surface0">
    <path style=" stroke:none;fill-rule:nonzero;fill:rgb(0%,0%,0%);fill-opacity:1;" d="M 347.222656 173.609375 C 354.859375 173.609375 361.109375 179.859375 361.109375 187.5 L 361.109375 312.5 C 361.109375 320.140625 354.859375 326.390625 347.222656 326.390625 L 152.777344 326.390625 C 145.140625 326.390625 138.890625 320.140625 138.890625 312.5 L 138.890625 187.5 C 138.890625 179.859375 145.140625 173.609375 152.777344 173.609375 L 347.222656 173.609375 M 347.222656 159.722656 L 152.777344 159.722656 C 137.5 159.722656 125 172.222656 125 187.5 L 125 312.5 C 125 327.777344 137.5 340.277344 152.777344 340.277344 L 347.222656 340.277344 C 362.5 340.277344 375 327.777344 375 312.5 L 375 187.5 C 375 172.222656 362.5 159.722656 347.222656 159.722656 L 347.222656 159.722656 Z M 347.222656 159.722656 "/>
    <path style=" stroke:none;fill-rule:nonzero;fill:rgb(0%,0%,0%);fill-opacity:1;" d="M 245.832031 265.277344 L 135.417969 186.109375 C 131.941406 184.027344 131.25 179.167969 134.027344 175.691406 L 134.027344 175.691406 C 136.109375 172.222656 140.972656 171.527344 144.441406 174.308594 L 254.859375 253.472656 C 258.332031 255.558594 259.027344 260.417969 256.25 263.890625 L 256.25 263.890625 C 253.472656 266.667969 248.609375 267.359375 245.832031 265.277344 Z M 245.832031 265.277344 "/>
    <path style=" stroke:none;fill-rule:nonzero;fill:rgb(0%,0%,0%);fill-opacity:1;" d="M 254.859375 265.277344 L 365.277344 185.417969 C 368.75 183.332031 369.441406 178.472656 366.667969 175 L 366.667969 175 C 364.582031 171.527344 359.722656 170.832031 356.25 173.609375 L 245.832031 252.777344 C 242.359375 254.859375 241.667969 259.722656 244.441406 263.191406 L 244.441406 263.191406 C 246.527344 266.667969 251.390625 267.359375 254.859375 265.277344 Z M 254.859375 265.277344 "/>
  </g>
</svg>