<?xml version="1.0" encoding="UTF-8" standalone="yes"?>
<svg xmlns="http://www.w3.org/2000/svg" xmlns:xlink="http://www.w3.org/1999/xlink" width="500px" height="500px" viewBox="0 0 500 500" version="1.1">
  <g id="surface0">
    <path style=" stroke:none;fill-rule:nonzero;fill:rgb(0.392157%,0.392157%,0.392157%);fill-opacity:1;" d="M 312.5 228.472656 C 312.5 219.445312 307.640625 218.054688 301.390625 218.054688 C 295.140625 218.054688 290.277344 222.917969 290.277344 228.472656 L 290.277344 270.140625 L 286.109375 270.140625 L 286.109375 155.554688 C 286.109375 150 281.25 145.140625 275 145.140625 C 268.75 145.140625 263.890625 150 263.890625 155.554688 L 263.890625 231.25 L 259.722656 231.25 L 259.722656 142.359375 C 259.722656 136.804688 254.859375 131.945312 248.609375 131.945312 C 242.359375 131.945312 237.5 136.804688 237.5 142.359375 L 237.5 230.554688 L 233.332031 230.554688 L 233.332031 155.554688 C 233.332031 150 228.472656 145.140625 222.222656 145.140625 C 215.972656 145.140625 211.109375 150 211.109375 155.554688 L 211.109375 237.5 L 206.945312 237.5 L 206.945312 193.75 C 206.945312 188.195312 202.082031 183.332031 195.832031 183.332031 C 189.582031 183.332031 184.722656 187.5 184.722656 193.054688 L 184.722656 279.167969 C 184.722656 313.195312 212.5 340.972656 247.222656 340.972656 C 281.945312 340.972656 309.722656 313.195312 309.722656 279.167969 L 309.722656 279.167969 L 312.5 228.472656 Z M 312.5 228.472656 "/>
  </g>
</svg>