<?xml version="1.0" encoding="UTF-8" standalone="yes"?>
<svg xmlns="http://www.w3.org/2000/svg" xmlns:xlink="http://www.w3.org/1999/xlink" width="500px" height="500px" viewBox="0 0 500 500" version="1.1">
  <g id="surface0">
    <path style=" stroke:none;fill-rule:nonzero;fill:rgb(0%,0%,0%);fill-opacity:1;" d="M 340.277344 145.832031 C 347.917969 145.832031 354.167969 152.082031 354.167969 159.722656 L 354.167969 340.277344 C 354.167969 347.917969 347.917969 354.167969 340.277344 354.167969 L 159.722656 354.167969 C 152.082031 354.167969 145.832031 347.917969 145.832031 340.277344 L 145.832031 159.722656 C 145.832031 152.082031 152.082031 145.832031 159.722656 145.832031 L 340.277344 145.832031 M 340.277344 131.945312 L 159.722656 131.945312 C 144.445312 131.945312 131.945312 144.445312 131.945312 159.722656 L 131.945312 340.277344 C 131.945312 355.554688 144.445312 368.054688 159.722656 368.054688 L 340.277344 368.054688 C 355.554688 368.054688 368.054688 355.554688 368.054688 340.277344 L 368.054688 159.722656 C 368.054688 144.445312 355.554688 131.945312 340.277344 131.945312 L 340.277344 131.945312 Z M 340.277344 131.945312 "/>
    <path style=" stroke:none;fill-rule:nonzero;fill:rgb(0%,0%,0%);fill-opacity:1;" d="M 201.390625 194.445312 C 201.390625 202.113281 195.171875 208.332031 187.5 208.332031 C 179.828125 208.332031 173.609375 202.113281 173.609375 194.445312 C 173.609375 186.773438 179.828125 180.554688 187.5 180.554688 C 195.171875 180.554688 201.390625 186.773438 201.390625 194.445312 Z M 201.390625 194.445312 "/>
    <path style=" stroke:none;fill-rule:nonzero;fill:rgb(0%,0%,0%);fill-opacity:1;" d="M 201.390625 250 C 201.390625 257.671875 195.171875 263.890625 187.5 263.890625 C 179.828125 263.890625 173.609375 257.671875 173.609375 250 C 173.609375 242.328125 179.828125 236.109375 187.5 236.109375 C 195.171875 236.109375 201.390625 242.328125 201.390625 250 Z M 201.390625 250 "/>
    <path style=" stroke:none;fill-rule:nonzero;fill:rgb(0%,0%,0%);fill-opacity:1;" d="M 201.390625 305.554688 C 201.390625 313.226562 195.171875 319.445312 187.5 319.445312 C 179.828125 319.445312 173.609375 313.226562 173.609375 305.554688 C 173.609375 297.886719 179.828125 291.667969 187.5 291.667969 C 195.171875 291.667969 201.390625 297.886719 201.390625 305.554688 Z M 201.390625 305.554688 "/>
    <path style=" stroke:none;fill-rule:nonzero;fill:rgb(0%,0%,0%);fill-opacity:1;" d="M 222.222656 187.5 L 319.445312 187.5 L 319.445312 202.082031 L 222.222656 202.082031 L 222.222656 187.5 Z M 222.222656 187.5 "/>
    <path style=" stroke:none;fill-rule:nonzero;fill:rgb(0%,0%,0%);fill-opacity:1;" d="M 222.222656 243.054688 L 319.445312 243.054688 L 319.445312 257.640625 L 222.222656 257.640625 L 222.222656 243.054688 Z M 222.222656 243.054688 "/>
    <path style=" stroke:none;fill-rule:nonzero;fill:rgb(0%,0%,0%);fill-opacity:1;" d="M 222.222656 297.917969 L 319.445312 297.917969 L 319.445312 312.5 L 222.222656 312.5 L 222.222656 297.917969 Z M 222.222656 297.917969 "/>
  </g>
</svg>