<?xml version="1.0" encoding="UTF-8" standalone="yes"?>
<svg xmlns="http://www.w3.org/2000/svg" xmlns:xlink="http://www.w3.org/1999/xlink" width="500px" height="500px" viewBox="0 0 500 500" version="1.1">
  <g id="surface0">
    <path style=" stroke:none;fill-rule:nonzero;fill:rgb(0.392157%,0.392157%,0.392157%);fill-opacity:1;" d="M 298.609375 154.859375 C 259.027344 115.277344 194.445312 115.277344 154.859375 154.859375 C 115.277344 194.445312 115.277344 259.027344 154.859375 298.609375 C 188.890625 332.640625 240.972656 337.5 279.859375 313.195312 C 280.554688 313.890625 280.554688 313.890625 281.25 314.582031 L 334.722656 368.054688 C 343.75 377.082031 359.027344 377.082031 368.054688 368.054688 C 377.082031 359.027344 377.082031 343.75 368.054688 334.722656 L 314.582031 281.25 C 313.890625 280.554688 313.890625 280.554688 313.195312 279.859375 C 337.5 240.972656 332.640625 188.890625 298.609375 154.859375 Z M 270.140625 270.140625 C 246.527344 293.75 207.640625 293.75 183.332031 270.140625 C 159.722656 246.527344 159.722656 207.640625 183.332031 183.332031 C 206.945312 159.722656 245.832031 159.722656 270.140625 183.332031 C 294.445312 206.945312 293.75 245.832031 270.140625 270.140625 Z M 270.140625 270.140625 "/>
  </g>
</svg>