<?xml version="1.0" encoding="UTF-8" standalone="yes"?>
<svg xmlns="http://www.w3.org/2000/svg" xmlns:xlink="http://www.w3.org/1999/xlink" width="500px" height="500px" viewBox="0 0 500 500" version="1.1">
  <g id="surface0">
    <path style=" stroke:none;fill-rule:nonzero;fill:rgb(0.392157%,0.392157%,0.392157%);fill-opacity:1;" d="M 125 250.695312 C 125 277.777344 146.527344 299.304688 173.609375 299.304688 L 173.609375 299.304688 L 291.667969 299.304688 C 295.832031 299.304688 298.609375 296.527344 298.609375 292.359375 C 298.609375 288.195312 295.832031 285.417969 291.667969 285.417969 L 173.609375 285.417969 L 173.609375 285.417969 C 154.167969 285.417969 138.890625 270.140625 138.890625 250.695312 C 138.890625 231.25 154.167969 215.972656 173.609375 215.972656 L 173.609375 215.972656 L 340.277344 215.972656 L 340.277344 215.972656 C 352.082031 215.972656 361.109375 225 361.109375 236.804688 C 361.109375 248.609375 352.082031 257.640625 340.277344 257.640625 L 340.277344 257.640625 L 173.609375 257.640625 L 173.609375 257.640625 C 169.445312 257.640625 166.667969 254.859375 166.667969 250.695312 C 166.667969 246.527344 169.445312 243.75 173.609375 243.75 L 173.609375 243.75 L 340.277344 243.75 C 344.445312 243.75 347.222656 240.972656 347.222656 236.804688 C 347.222656 232.640625 344.445312 229.859375 340.277344 229.859375 L 173.609375 229.859375 L 173.609375 229.859375 C 161.804688 229.859375 152.777344 238.890625 152.777344 250.695312 C 152.777344 262.5 161.804688 271.527344 173.609375 271.527344 L 173.609375 271.527344 L 340.277344 271.527344 L 340.277344 271.527344 C 359.722656 271.527344 375 256.25 375 236.804688 C 375 217.359375 359.722656 202.082031 340.277344 202.082031 L 340.277344 202.082031 L 173.609375 202.082031 L 173.609375 202.082031 C 146.527344 202.082031 125 223.609375 125 250.695312 Z M 125 250.695312 "/>
  </g>
</svg>