<?xml version="1.0" encoding="UTF-8" standalone="yes"?>
<svg xmlns="http://www.w3.org/2000/svg" xmlns:xlink="http://www.w3.org/1999/xlink" width="500px" height="500px" viewBox="0 0 500 500" version="1.1">
  <g id="surface0">
    <path style=" stroke:none;fill-rule:nonzero;fill:rgb(0%,0%,0%);fill-opacity:1;" d="M 243.054688 354.167969 L 201.390625 354.167969 L 201.390625 312.5 L 240.972656 312.5 C 243.054688 298.609375 248.609375 285.417969 256.945312 274.304688 L 256.945312 257.640625 L 273.609375 257.640625 C 284.722656 249.304688 297.917969 243.054688 312.5 240.972656 L 312.5 201.390625 L 354.167969 201.390625 L 354.167969 243.75 L 352.777344 243.75 C 358.332031 245.140625 363.195312 247.917969 368.054688 250 L 368.054688 243.75 L 368.054688 201.390625 L 368.054688 187.5 L 368.054688 159.722656 C 368.054688 144.445312 355.554688 131.945312 340.277344 131.945312 L 159.722656 131.945312 C 144.445312 131.945312 131.945312 144.445312 131.945312 159.722656 L 131.945312 187.5 L 131.945312 201.390625 L 131.945312 243.75 L 131.945312 257.640625 L 131.945312 298.609375 L 131.945312 312.5 L 131.945312 340.277344 C 131.945312 355.554688 144.445312 368.054688 159.722656 368.054688 L 187.5 368.054688 L 201.390625 368.054688 L 243.054688 368.054688 L 250 368.054688 C 247.222656 362.5 244.445312 356.945312 243.054688 350.695312 L 243.054688 354.167969 Z M 243.054688 298.609375 L 201.390625 298.609375 L 201.390625 257.640625 L 243.054688 257.640625 L 243.054688 298.609375 Z M 243.054688 243.75 L 201.390625 243.75 L 201.390625 201.390625 L 243.054688 201.390625 L 243.054688 243.75 Z M 298.609375 243.75 L 256.945312 243.75 L 256.945312 201.390625 L 298.609375 201.390625 L 298.609375 243.75 Z M 187.5 354.167969 L 159.722656 354.167969 C 152.082031 354.167969 145.832031 347.917969 145.832031 340.277344 L 145.832031 312.5 L 187.5 312.5 L 187.5 354.167969 Z M 187.5 298.609375 L 145.832031 298.609375 L 145.832031 257.640625 L 187.5 257.640625 L 187.5 298.609375 Z M 187.5 243.75 L 145.832031 243.75 L 145.832031 201.390625 L 187.5 201.390625 L 187.5 243.75 Z M 187.5 187.5 L 145.832031 187.5 L 145.832031 159.722656 C 145.832031 152.082031 152.082031 145.832031 159.722656 145.832031 L 340.277344 145.832031 C 347.917969 145.832031 354.167969 152.082031 354.167969 159.722656 L 354.167969 187.5 L 312.5 187.5 L 298.609375 187.5 L 256.945312 187.5 L 243.054688 187.5 L 201.390625 187.5 L 187.5 187.5 Z M 187.5 187.5 "/>
    <path style=" stroke:none;fill-rule:nonzero;fill:rgb(0%,0%,0%);fill-opacity:1;" d="M 326.390625 267.359375 C 359.027344 267.359375 385.417969 293.75 385.417969 326.390625 C 385.417969 359.027344 359.027344 385.417969 326.390625 385.417969 C 293.75 385.417969 267.359375 359.027344 267.359375 326.390625 C 267.359375 293.75 293.75 267.359375 326.390625 267.359375 M 326.390625 253.472656 C 286.109375 253.472656 253.472656 286.109375 253.472656 326.390625 C 253.472656 366.667969 286.109375 399.304688 326.390625 399.304688 C 366.667969 399.304688 399.304688 366.667969 399.304688 326.390625 C 399.304688 286.109375 366.667969 253.472656 326.390625 253.472656 L 326.390625 253.472656 Z M 326.390625 253.472656 "/>
    <path style=" stroke:none;fill-rule:nonzero;fill:rgb(0%,0%,0%);fill-opacity:1;" d="M 301.390625 356.25 L 301.390625 349.304688 C 307.640625 346.527344 313.195312 340.277344 313.195312 333.332031 C 313.195312 331.25 313.195312 329.859375 312.5 327.777344 L 302.082031 327.777344 L 302.082031 319.445312 L 311.109375 319.445312 C 310.417969 316.667969 309.722656 313.195312 309.722656 310.417969 C 309.722656 297.917969 318.75 290.277344 331.945312 290.277344 C 337.5 290.277344 341.667969 291.667969 343.75 293.054688 L 341.667969 302.082031 C 339.582031 300.695312 336.804688 300 332.640625 300 C 325 300 322.222656 304.859375 322.222656 311.109375 C 322.222656 314.582031 322.917969 317.359375 323.609375 320.140625 L 338.195312 320.140625 L 338.195312 328.472656 L 324.304688 328.472656 C 324.304688 331.25 324.304688 334.722656 323.609375 337.5 C 322.222656 340.972656 320.140625 343.75 317.359375 346.527344 L 317.359375 346.527344 L 347.222656 346.527344 L 347.222656 356.945312 L 301.390625 356.945312 Z M 301.390625 356.25 "/>
  </g>
</svg>