<?xml version="1.0" encoding="utf-8"?>
<!-- Generator: Adobe Illustrator 19.0.0, SVG Export Plug-In . SVG Version: 6.00 Build 0)  -->
<!DOCTYPE svg PUBLIC "-//W3C//DTD SVG 1.1//EN" "http://www.w3.org/Graphics/SVG/1.1/DTD/svg11.dtd">
<svg version="1.1" id="Layer_1" xmlns="http://www.w3.org/2000/svg" xmlns:xlink="http://www.w3.org/1999/xlink" x="0px" y="0px"
	 width="500px" height="500px" viewBox="0 0 500 500" enable-background="new 0 0 500 500" xml:space="preserve">
<path id="XMLID_2_" fill="#1D1D1B" d="M321.1,154.1L321.1,154.1c-5.4-4.2-11.7-6.2-18-6.2c-8.8,0-17.5,3.9-23.3,11.4l-99.4,128.2
	c-10,12.8-12.9,64.5-12.9,64.5s49.4-15.6,59.4-28.4l99.4-128.2C336.2,182.6,333.9,164.1,321.1,154.1z M215.1,294.4
	c-5.6-4.3-11.5-7.9-17.7-10.8l69.5-89.6c5.5,2.5,10.9,5.6,15.8,9.5c5,3.9,9.4,8.3,13.2,13.1L227,305.5
	C223.4,301.6,219.5,297.8,215.1,294.4z M179.9,336.1c2-18.8,5.6-37.2,9.2-41.8l1.2-1.6c6.3,2.7,12.3,6.1,17.9,10.5
	c4.4,3.4,8.3,7.2,11.7,11.3l-1.9,2.4C214.6,321.5,197.7,329.5,179.9,336.1z M317.5,188.7l-14.7,19c-4-4.6-8.4-8.9-13.4-12.8
	c-5-3.9-10.2-7.1-15.7-9.8l14.7-19c3.5-4.5,8.8-7.1,14.5-7.1c4.1,0,8,1.3,11.3,3.9c3.9,3,6.4,7.4,7,12.2
	C321.9,180,320.6,184.8,317.5,188.7z"/>
</svg>
