<?xml version="1.0" encoding="utf-8"?>
<!-- Generator: Adobe Illustrator 19.0.0, SVG Export Plug-In . SVG Version: 6.00 Build 0)  -->
<!DOCTYPE svg PUBLIC "-//W3C//DTD SVG 1.1//EN" "http://www.w3.org/Graphics/SVG/1.1/DTD/svg11.dtd">
<svg version="1.1" id="Layer_1" xmlns="http://www.w3.org/2000/svg" xmlns:xlink="http://www.w3.org/1999/xlink" x="0px" y="0px"
	 width="500px" height="500px" viewBox="0 0 500 500" enable-background="new 0 0 500 500" xml:space="preserve">
<g id="XMLID_2_">
	<path id="XMLID_5_" fill="#1D1D1B" d="M207.2,302.1c-8.8-6.9-18.8-11.6-26.8-14.5c-10,12.8-12.9,64.5-12.9,64.5
		s49.4-15.6,59.4-28.4l0.3-0.4C222.5,316.5,215.8,308.8,207.2,302.1z"/>
	<path id="XMLID_4_" fill="#1D1D1B" d="M214,293.3c8.1,6.4,15.2,14.1,20.3,20.8l68.9-88.8c-4.8-6.9-11.5-14.8-20.4-21.8
		c-8.6-6.7-18.2-11.3-26.1-14.3l-69.1,89.1C195.4,281.6,205.1,286.4,214,293.3z"/>
	<path id="XMLID_3_" fill="#1D1D1B" d="M321.1,154.1L321.1,154.1c-5.4-4.2-11.7-6.2-18-6.2c-8.8,0-17.5,3.9-23.3,11.4l-16.1,20.8
		c7.8,3.2,17.2,8,25.8,14.7c8.4,6.5,15.6,14.6,20.7,21.3l16.1-20.7C336.2,182.6,333.9,164.1,321.1,154.1z"/>
</g>
</svg>
