<?xml version="1.0" encoding="UTF-8" standalone="yes"?>
<svg xmlns="http://www.w3.org/2000/svg" xmlns:xlink="http://www.w3.org/1999/xlink" width="500px" height="500px" viewBox="0 0 500 500" version="1.1">
  <g id="surface0">
    <path style=" stroke:none;fill-rule:nonzero;fill:rgb(0%,0%,0%);fill-opacity:1;" d="M 270.832031 104.167969 L 270.832031 229.167969 L 395.832031 229.167969 C 395.832031 160.417969 339.582031 104.167969 270.832031 104.167969 Z M 270.832031 104.167969 "/>
    <path style=" stroke:none;fill-rule:nonzero;fill:rgb(0%,0%,0%);fill-opacity:1;" d="M 236.109375 140.277344 L 236.109375 250 L 236.109375 263.890625 L 250 263.890625 L 360.417969 263.890625 C 354.167969 319.445312 306.945312 361.804688 250 361.804688 C 188.890625 361.804688 138.890625 311.804688 138.890625 250.695312 C 138.890625 193.75 181.25 147.222656 236.109375 140.277344 M 250 125 C 181.25 125 125 181.25 125 250 C 125 319.445312 181.25 375 250 375 C 318.75 375 375 318.75 375 250 C 375 250 375 250 375 250 L 250 250 L 250 125 L 250 125 Z M 250 125 "/>
  </g>
</svg>