<?xml version="1.0" encoding="UTF-8" standalone="yes"?>
<svg xmlns="http://www.w3.org/2000/svg" xmlns:xlink="http://www.w3.org/1999/xlink" width="500px" height="500px" viewBox="0 0 500 500" version="1.1">
  <g id="surface0">
    <path style=" stroke:none;fill-rule:nonzero;fill:rgb(0.392157%,0.392157%,0.392157%);fill-opacity:1;" d="M 250 83.332031 C 157.640625 83.332031 83.332031 157.640625 83.332031 250 C 83.332031 342.359375 157.640625 416.667969 250 416.667969 C 342.359375 416.667969 416.667969 342.359375 416.667969 250 C 416.667969 157.640625 342.359375 83.332031 250 83.332031 Z M 326.390625 263.890625 L 263.890625 263.890625 L 263.890625 326.390625 C 263.890625 334.027344 257.640625 340.277344 250 340.277344 C 242.359375 340.277344 236.109375 334.027344 236.109375 326.390625 L 236.109375 263.890625 L 173.609375 263.890625 C 165.972656 263.890625 159.722656 257.640625 159.722656 250 C 159.722656 242.359375 165.972656 236.109375 173.609375 236.109375 L 236.109375 236.109375 L 236.109375 173.609375 C 236.109375 165.972656 242.359375 159.722656 250 159.722656 C 257.640625 159.722656 263.890625 165.972656 263.890625 173.609375 L 263.890625 236.109375 L 326.390625 236.109375 C 334.027344 236.109375 340.277344 242.359375 340.277344 250 C 340.277344 257.640625 334.027344 263.890625 326.390625 263.890625 Z M 326.390625 263.890625 "/>
  </g>
</svg>