<?xml version="1.0" encoding="UTF-8" standalone="yes"?>
<svg xmlns="http://www.w3.org/2000/svg" xmlns:xlink="http://www.w3.org/1999/xlink" width="500px" height="500px" viewBox="0 0 500 500" version="1.1">
  <g id="surface0">
    <path style=" stroke:none;fill-rule:nonzero;fill:rgb(0.392157%,0.392157%,0.392157%);fill-opacity:1;" d="M 250 83.332031 C 157.640625 83.332031 83.332031 157.640625 83.332031 250 C 83.332031 342.359375 157.640625 416.667969 250 416.667969 C 342.359375 416.667969 416.667969 342.359375 416.667969 250 C 416.667969 157.640625 342.359375 83.332031 250 83.332031 Z M 328.472656 259.722656 L 259.722656 259.722656 L 259.722656 328.472656 C 259.722656 334.027344 255.554688 338.195312 250 338.195312 C 244.445312 338.195312 240.277344 334.027344 240.277344 328.472656 L 240.277344 259.722656 L 171.527344 259.722656 C 165.972656 259.722656 161.804688 255.554688 161.804688 250 C 161.804688 244.445312 165.972656 240.277344 171.527344 240.277344 L 240.277344 240.277344 L 240.277344 171.527344 C 240.277344 165.972656 244.445312 161.804688 250 161.804688 C 255.554688 161.804688 259.722656 165.972656 259.722656 171.527344 L 259.722656 240.277344 L 328.472656 240.277344 C 334.027344 240.277344 338.195312 244.445312 338.195312 250 C 338.195312 255.554688 334.027344 259.722656 328.472656 259.722656 Z M 328.472656 259.722656 "/>
  </g>
</svg>