<?xml version="1.0" encoding="UTF-8" standalone="yes"?>
<svg xmlns="http://www.w3.org/2000/svg" xmlns:xlink="http://www.w3.org/1999/xlink" width="500px" height="500px" viewBox="0 0 500 500" version="1.1">
  <g id="surface0">
    <path style=" stroke:none;fill-rule:nonzero;fill:rgb(0.392157%,0.392157%,0.392157%);fill-opacity:1;" d="M 250 83.332031 C 158.332031 83.332031 83.332031 158.332031 83.332031 250 C 83.332031 341.667969 158.332031 416.667969 250 416.667969 C 341.667969 416.667969 416.667969 341.667969 416.667969 250 C 416.667969 158.332031 341.667969 83.332031 250 83.332031 Z M 250 392.359375 C 171.527344 392.359375 107.640625 328.472656 107.640625 250 C 107.640625 171.527344 171.527344 107.640625 250 107.640625 C 328.472656 107.640625 392.359375 171.527344 392.359375 250 C 392.359375 328.472656 328.472656 392.359375 250 392.359375 Z M 250 392.359375 "/>
    <path style=" stroke:none;fill-rule:nonzero;fill:rgb(0.392157%,0.392157%,0.392157%);fill-opacity:1;" d="M 262.5 237.5 L 262.5 170.140625 C 262.5 163.195312 256.945312 157.640625 250 157.640625 C 243.054688 157.640625 237.5 163.195312 237.5 170.140625 L 237.5 237.5 L 170.140625 237.5 C 163.195312 237.5 157.640625 243.054688 157.640625 250 C 157.640625 256.945312 163.195312 262.5 170.140625 262.5 L 237.5 262.5 L 237.5 329.859375 C 237.5 336.804688 243.054688 342.359375 250 342.359375 C 253.472656 342.359375 256.25 340.972656 259.027344 338.890625 C 261.109375 336.804688 262.5 333.332031 262.5 329.859375 L 262.5 262.5 L 329.859375 262.5 C 333.332031 262.5 336.109375 261.109375 338.890625 259.027344 C 340.972656 256.945312 342.359375 253.472656 342.359375 250 C 342.359375 243.054688 336.804688 237.5 329.859375 237.5 L 262.5 237.5 Z M 262.5 237.5 "/>
  </g>
</svg>