<?xml version="1.0" encoding="UTF-8" standalone="yes"?>
<svg xmlns="http://www.w3.org/2000/svg" xmlns:xlink="http://www.w3.org/1999/xlink" width="500px" height="500px" viewBox="0 0 500 500" version="1.1">
  <g id="surface0">
    <path style=" stroke:none;fill-rule:nonzero;fill:rgb(0.392157%,0.392157%,0.392157%);fill-opacity:1;" d="M 250 83.332031 C 158.332031 83.332031 83.332031 158.332031 83.332031 250 C 83.332031 341.667969 158.332031 416.667969 250 416.667969 C 341.667969 416.667969 416.667969 341.667969 416.667969 250 C 416.667969 158.332031 341.667969 83.332031 250 83.332031 Z M 338.195312 258.332031 C 336.109375 260.417969 332.640625 261.804688 329.167969 261.804688 L 261.804688 261.804688 L 261.804688 329.167969 C 261.804688 332.640625 260.417969 335.417969 258.332031 338.195312 C 256.25 340.277344 252.777344 341.667969 249.304688 341.667969 C 242.359375 341.667969 236.804688 336.109375 236.804688 329.167969 L 236.804688 261.804688 L 169.445312 261.804688 C 162.5 261.804688 156.945312 256.25 156.945312 249.304688 C 156.945312 242.359375 162.5 236.804688 169.445312 236.804688 L 236.804688 236.804688 L 236.804688 169.445312 C 236.804688 162.5 242.359375 156.945312 249.304688 156.945312 C 256.25 156.945312 261.804688 162.5 261.804688 169.445312 L 261.804688 236.804688 L 329.167969 236.804688 C 336.109375 236.804688 341.667969 242.359375 341.667969 249.304688 C 341.667969 253.472656 340.277344 256.25 338.195312 258.332031 Z M 338.195312 258.332031 "/>
  </g>
</svg>