<?xml version="1.0" encoding="UTF-8" standalone="yes"?>
<svg xmlns="http://www.w3.org/2000/svg" xmlns:xlink="http://www.w3.org/1999/xlink" width="500px" height="500px" viewBox="0 0 500 500" version="1.1">
  <g id="surface0">
    <path style=" stroke:none;fill-rule:nonzero;fill:rgb(0.392157%,0.392157%,0.392157%);fill-opacity:1;" d="M 250 125 L 250 125 C 257.640625 125 263.890625 131.25 263.890625 138.890625 L 263.890625 361.109375 C 263.890625 368.75 257.640625 375 250 375 L 250 375 C 242.359375 375 236.109375 368.75 236.109375 361.109375 L 236.109375 138.890625 C 236.109375 131.25 242.359375 125 250 125 Z M 250 125 "/>
    <path style=" stroke:none;fill-rule:nonzero;fill:rgb(0.392157%,0.392157%,0.392157%);fill-opacity:1;" d="M 138.890625 236.109375 L 361.109375 236.109375 C 368.75 236.109375 375 242.359375 375 250 L 375 250 C 375 257.640625 368.75 263.890625 361.109375 263.890625 L 138.890625 263.890625 C 131.25 263.890625 125 257.640625 125 250 L 125 250 C 125 242.359375 131.25 236.109375 138.890625 236.109375 Z M 138.890625 236.109375 "/>
  </g>
</svg>