<?xml version="1.0" encoding="UTF-8" standalone="yes"?>
<svg xmlns="http://www.w3.org/2000/svg" xmlns:xlink="http://www.w3.org/1999/xlink" width="500px" height="500px" viewBox="0 0 500 500" version="1.1">
  <g id="surface0">
    <path style=" stroke:none;fill-rule:nonzero;fill:rgb(0.392157%,0.392157%,0.392157%);fill-opacity:1;" d="M 284.722656 178.472656 C 320.140625 178.472656 349.304688 207.640625 349.304688 243.75 L 349.304688 247.222656 C 349.304688 267.359375 339.582031 286.804688 324.304688 299.304688 C 312.5 308.332031 281.25 327.082031 258.332031 338.195312 L 261.804688 329.167969 L 267.359375 313.195312 L 250.695312 313.195312 L 215.972656 313.195312 C 180.554688 313.195312 151.390625 284.027344 151.390625 247.917969 L 151.390625 244.445312 C 151.390625 208.332031 180.554688 179.167969 215.972656 179.167969 L 284.722656 179.167969 M 284.722656 166.667969 L 215.277344 166.667969 C 172.917969 166.667969 138.890625 201.390625 138.890625 243.75 L 138.890625 247.222656 C 138.890625 289.582031 173.609375 324.304688 215.277344 324.304688 L 250 324.304688 L 243.054688 344.445312 C 242.359375 347.222656 243.054688 350 245.140625 352.082031 C 246.527344 353.472656 247.917969 354.167969 250 354.167969 C 250.695312 354.167969 252.082031 354.167969 252.777344 353.472656 C 275.695312 343.054688 316.667969 319.445312 331.25 308.332031 C 350 293.75 361.109375 270.832031 361.109375 247.222656 L 361.109375 243.75 C 361.109375 201.390625 326.390625 166.667969 284.722656 166.667969 L 284.722656 166.667969 Z M 284.722656 166.667969 "/>
  </g>
</svg>