<?xml version="1.0" encoding="utf-8"?>
<!-- Generator: Adobe Illustrator 19.1.0, SVG Export Plug-In . SVG Version: 6.00 Build 0)  -->
<svg version="1.1" id="Layer_1" xmlns="http://www.w3.org/2000/svg" xmlns:xlink="http://www.w3.org/1999/xlink" x="0px" y="0px"
	 viewBox="0 0 500 500" style="enable-background:new 0 0 500 500;" xml:space="preserve">
<g>
	<rect x="216.1" y="138.9" width="145" height="13.9"/>
	<rect x="215.3" y="166.7" width="125" height="13.9"/>
	<rect x="216.1" y="228.6" width="145" height="13.9"/>
	<rect x="215.3" y="256.9" width="125" height="13.9"/>
	<rect x="216.1" y="318.9" width="145" height="13.9"/>
	<rect x="215.3" y="347.2" width="125" height="13.9"/>
	<path d="M180.6,326.4v27.8h-27.8v-27.8H180.6 M180.6,312.5h-27.8c-7.6,0-13.9,6.3-13.9,13.9v27.8c0,7.6,6.2,13.9,13.9,13.9h27.8
		c7.6,0,13.9-6.3,13.9-13.9v-27.8C194.4,318.7,188.2,312.5,180.6,312.5L180.6,312.5z"/>
	<path d="M190.7,126.9c-3.3-1.9-7.5-1-9.3,2.1l-23.2,39.1l-13.6-17.7c-2.3-3-6.7-3.6-9.7-1.3v0c-3,2.3-3.6,6.7-1.3,9.7l19.7,25.6
		c0.2,0.3,0.5,0.4,0.8,0.7c0.4,0.4,0.8,0.9,1.4,1.2c3.3,1.9,7.5,1,9.3-2.1l28.6-48.2C195.2,133,194,128.9,190.7,126.9z"/>
	<path d="M190.7,217.2c-3.3-1.9-7.5-1-9.3,2.1l-23.2,39.1l-13.6-17.7c-2.3-3-6.7-3.6-9.7-1.3v0c-3,2.3-3.6,6.7-1.3,9.7l19.7,25.6
		c0.2,0.3,0.5,0.4,0.8,0.7c0.4,0.4,0.8,0.9,1.4,1.2c3.3,1.9,7.5,1,9.3-2.1l28.6-48.2C195.2,223.3,194,219.2,190.7,217.2z"/>
</g>
</svg>
