<?xml version="1.0" encoding="UTF-8" standalone="yes"?>
<svg xmlns="http://www.w3.org/2000/svg" xmlns:xlink="http://www.w3.org/1999/xlink" width="500px" height="500px" viewBox="0 0 500 500" version="1.1">
  <g id="surface0">
    <path style=" stroke:none;fill-rule:nonzero;fill:rgb(0%,0%,0%);fill-opacity:1;" d="M 341.667969 187.5 L 158.332031 187.5 C 140.277344 187.5 125 202.082031 125 222.222656 L 125 277.777344 C 125 296.527344 140.277344 312.5 158.332031 312.5 L 342.359375 312.5 C 360.417969 312.5 375.695312 296.527344 375 276.390625 L 375 222.222656 C 375 203.472656 360.417969 187.5 341.667969 187.5 Z M 180.554688 270.832031 C 168.75 270.832031 159.722656 261.804688 159.722656 250 C 159.722656 238.195312 168.75 229.167969 180.554688 229.167969 C 192.359375 229.167969 201.390625 238.195312 201.390625 250 C 201.390625 261.804688 192.359375 270.832031 180.554688 270.832031 Z M 250 270.832031 C 238.195312 270.832031 229.167969 261.804688 229.167969 250 C 229.167969 238.195312 238.195312 229.167969 250 229.167969 C 261.804688 229.167969 270.832031 238.195312 270.832031 250 C 270.832031 261.804688 261.804688 270.832031 250 270.832031 Z M 319.445312 270.832031 C 307.640625 270.832031 298.609375 261.804688 298.609375 250 C 298.609375 238.195312 307.640625 229.167969 319.445312 229.167969 C 331.25 229.167969 340.277344 238.195312 340.277344 250 C 340.277344 261.804688 331.25 270.832031 319.445312 270.832031 Z M 319.445312 270.832031 "/>
  </g>
</svg>