<?xml version="1.0" encoding="UTF-8" standalone="yes"?>
<svg xmlns="http://www.w3.org/2000/svg" xmlns:xlink="http://www.w3.org/1999/xlink" width="500px" height="500px" viewBox="0 0 500 500" version="1.1">
  <g id="surface0">
    <path style=" stroke:none;fill-rule:nonzero;fill:rgb(0%,0%,0%);fill-opacity:1;" d="M 194.445312 159.722656 C 194.445312 178.898438 178.898438 194.445312 159.722656 194.445312 C 140.546875 194.445312 125 178.898438 125 159.722656 C 125 140.546875 140.546875 125 159.722656 125 C 178.898438 125 194.445312 140.546875 194.445312 159.722656 Z M 194.445312 159.722656 "/>
    <path style=" stroke:none;fill-rule:nonzero;fill:rgb(0%,0%,0%);fill-opacity:1;" d="M 375.695312 159.722656 C 375.695312 178.898438 360.148438 194.445312 340.972656 194.445312 C 321.796875 194.445312 306.25 178.898438 306.25 159.722656 C 306.25 140.546875 321.796875 125 340.972656 125 C 360.148438 125 375.695312 140.546875 375.695312 159.722656 Z M 375.695312 159.722656 "/>
    <path style=" stroke:none;fill-rule:nonzero;fill:rgb(0%,0%,0%);fill-opacity:1;" d="M 284.722656 159.722656 C 284.722656 179.167969 269.445312 194.445312 250 194.445312 C 230.554688 194.445312 215.277344 179.167969 215.277344 159.722656 C 215.277344 140.277344 230.554688 125 250 125 C 269.445312 125 284.722656 140.277344 284.722656 159.722656 Z M 284.722656 159.722656 "/>
    <path style=" stroke:none;fill-rule:nonzero;fill:rgb(0%,0%,0%);fill-opacity:1;" d="M 194.445312 340.972656 C 194.445312 360.148438 178.898438 375.695312 159.722656 375.695312 C 140.546875 375.695312 125 360.148438 125 340.972656 C 125 321.796875 140.546875 306.25 159.722656 306.25 C 178.898438 306.25 194.445312 321.796875 194.445312 340.972656 Z M 194.445312 340.972656 "/>
    <path style=" stroke:none;fill-rule:nonzero;fill:rgb(0%,0%,0%);fill-opacity:1;" d="M 375.695312 340.972656 C 375.695312 360.148438 360.148438 375.695312 340.972656 375.695312 C 321.796875 375.695312 306.25 360.148438 306.25 340.972656 C 306.25 321.796875 321.796875 306.25 340.972656 306.25 C 360.148438 306.25 375.695312 321.796875 375.695312 340.972656 Z M 375.695312 340.972656 "/>
    <path style=" stroke:none;fill-rule:nonzero;fill:rgb(0%,0%,0%);fill-opacity:1;" d="M 284.722656 340.972656 C 284.722656 360.148438 269.175781 375.695312 250 375.695312 C 230.824219 375.695312 215.277344 360.148438 215.277344 340.972656 C 215.277344 321.796875 230.824219 306.25 250 306.25 C 269.175781 306.25 284.722656 321.796875 284.722656 340.972656 Z M 284.722656 340.972656 "/>
    <path style=" stroke:none;fill-rule:nonzero;fill:rgb(0%,0%,0%);fill-opacity:1;" d="M 194.445312 250 C 194.445312 269.175781 178.898438 284.722656 159.722656 284.722656 C 140.546875 284.722656 125 269.175781 125 250 C 125 230.824219 140.546875 215.277344 159.722656 215.277344 C 178.898438 215.277344 194.445312 230.824219 194.445312 250 Z M 194.445312 250 "/>
    <path style=" stroke:none;fill-rule:nonzero;fill:rgb(0%,0%,0%);fill-opacity:1;" d="M 375.695312 250 C 375.695312 269.175781 360.148438 284.722656 340.972656 284.722656 C 321.796875 284.722656 306.25 269.175781 306.25 250 C 306.25 230.824219 321.796875 215.277344 340.972656 215.277344 C 360.148438 215.277344 375.695312 230.824219 375.695312 250 Z M 375.695312 250 "/>
    <path style=" stroke:none;fill-rule:nonzero;fill:rgb(0%,0%,0%);fill-opacity:1;" d="M 284.722656 250 C 284.722656 269.175781 269.175781 284.722656 250 284.722656 C 230.824219 284.722656 215.277344 269.175781 215.277344 250 C 215.277344 230.824219 230.824219 215.277344 250 215.277344 C 269.175781 215.277344 284.722656 230.824219 284.722656 250 Z M 284.722656 250 "/>
  </g>
</svg>