<?xml version="1.0" encoding="UTF-8" standalone="yes"?>
<svg xmlns="http://www.w3.org/2000/svg" xmlns:xlink="http://www.w3.org/1999/xlink" width="500px" height="500px" viewBox="0 0 500 500" version="1.1">
  <g id="surface0">
    <path style=" stroke:none;fill-rule:nonzero;fill:rgb(0.392157%,0.392157%,0.392157%);fill-opacity:1;" d="M 206.945312 319.445312 L 340.277344 161.804688 C 345.140625 156.25 354.167969 154.859375 359.722656 160.417969 L 359.722656 160.417969 C 365.277344 165.277344 366.667969 174.304688 361.109375 179.859375 L 228.472656 337.5 C 223.609375 343.054688 214.582031 344.445312 209.027344 338.890625 L 209.027344 338.890625 C 202.777344 334.027344 202.082031 325.695312 206.945312 319.445312 Z M 206.945312 319.445312 "/>
    <path style=" stroke:none;fill-rule:nonzero;fill:rgb(0.392157%,0.392157%,0.392157%);fill-opacity:1;" d="M 207.640625 338.195312 L 138.890625 259.027344 C 134.027344 253.472656 134.027344 244.445312 139.582031 239.582031 L 139.582031 239.582031 C 145.140625 234.722656 154.167969 234.722656 159.027344 240.277344 L 227.777344 319.445312 C 232.640625 325 232.640625 334.027344 227.082031 338.890625 L 227.082031 338.890625 C 221.527344 343.75 212.5 343.75 207.640625 338.195312 Z M 207.640625 338.195312 "/>
  </g>
</svg>