<?xml version="1.0" encoding="UTF-8" standalone="yes"?>
<svg xmlns="http://www.w3.org/2000/svg" xmlns:xlink="http://www.w3.org/1999/xlink" width="500px" height="500px" viewBox="0 0 500 500" version="1.1">
  <g id="surface0">
    <path style=" stroke:none;fill-rule:nonzero;fill:rgb(0.392157%,0.392157%,0.392157%);fill-opacity:1;" d="M 250 83.332031 C 158.332031 83.332031 83.332031 158.332031 83.332031 250 C 83.332031 341.667969 158.332031 416.667969 250 416.667969 C 341.667969 416.667969 416.667969 341.667969 416.667969 250 C 416.667969 158.332031 341.667969 83.332031 250 83.332031 Z M 331.945312 204.859375 L 242.359375 311.109375 C 240.277344 313.890625 236.804688 315.277344 233.332031 315.277344 C 233.332031 315.277344 233.332031 315.277344 233.332031 315.277344 C 229.859375 315.277344 226.390625 313.890625 224.304688 311.109375 L 168.75 250 C 163.890625 245.140625 164.582031 237.5 169.445312 232.640625 C 174.304688 227.777344 181.945312 228.472656 186.804688 233.332031 L 233.332031 284.027344 L 313.890625 188.195312 C 318.054688 183.332031 325.695312 182.640625 331.25 186.804688 C 335.417969 191.667969 336.109375 199.304688 331.945312 204.859375 Z M 331.945312 204.859375 "/>
  </g>
</svg>