<?xml version="1.0" encoding="UTF-8" standalone="yes"?>
<svg xmlns="http://www.w3.org/2000/svg" xmlns:xlink="http://www.w3.org/1999/xlink" width="500px" height="500px" viewBox="0 0 500 500" version="1.1">
  <g id="surface0">
    <path style=" stroke:none;fill-rule:nonzero;fill:rgb(0.392157%,0.392157%,0.392157%);fill-opacity:1;" d="M 250 83.332031 C 158.332031 83.332031 83.332031 158.332031 83.332031 250 C 83.332031 341.667969 158.332031 416.667969 250 416.667969 C 341.667969 416.667969 416.667969 341.667969 416.667969 250 C 416.667969 158.332031 341.667969 83.332031 250 83.332031 Z M 250 392.359375 C 171.527344 392.359375 107.640625 328.472656 107.640625 250 C 107.640625 171.527344 171.527344 107.640625 250 107.640625 C 328.472656 107.640625 392.359375 171.527344 392.359375 250 C 392.359375 328.472656 328.472656 392.359375 250 392.359375 Z M 250 392.359375 "/>
    <path style=" stroke:none;fill-rule:nonzero;fill:rgb(0.392157%,0.392157%,0.392157%);fill-opacity:1;" d="M 313.195312 188.890625 L 232.640625 284.722656 L 186.109375 234.027344 C 181.25 229.167969 173.609375 228.472656 168.75 233.332031 C 163.890625 238.195312 163.195312 245.832031 168.054688 250.695312 L 223.609375 311.804688 C 225.695312 314.582031 229.167969 315.972656 232.640625 315.972656 C 232.640625 315.972656 232.640625 315.972656 232.640625 315.972656 C 236.109375 315.972656 239.582031 314.582031 241.667969 311.804688 L 331.25 204.859375 C 335.417969 200 334.722656 191.667969 329.859375 187.5 C 325 182.640625 317.359375 183.332031 313.195312 188.890625 Z M 313.195312 188.890625 "/>
  </g>
</svg>