<?xml version="1.0" encoding="UTF-8" standalone="yes"?>
<svg xmlns="http://www.w3.org/2000/svg" xmlns:xlink="http://www.w3.org/1999/xlink" width="500px" height="500px" viewBox="0 0 500 500" version="1.1">
  <g id="surface0">
    <path style=" stroke:none;fill-rule:nonzero;fill:rgb(0.392157%,0.392157%,0.392157%);fill-opacity:1;" d="M 250 83.332031 C 157.640625 83.332031 83.332031 157.640625 83.332031 250 C 83.332031 342.359375 157.640625 416.667969 250 416.667969 C 342.359375 416.667969 416.667969 342.359375 416.667969 250 C 416.667969 157.640625 342.359375 83.332031 250 83.332031 Z M 330.554688 211.109375 L 240.277344 318.75 C 240.277344 318.75 239.582031 319.445312 239.582031 319.445312 C 239.582031 319.445312 238.890625 320.140625 238.890625 320.140625 C 238.890625 320.140625 238.890625 320.140625 238.195312 320.140625 C 237.5 320.140625 237.5 320.832031 236.804688 320.832031 C 236.109375 320.832031 236.109375 321.527344 235.417969 321.527344 C 234.722656 321.527344 234.722656 322.222656 234.027344 322.222656 C 233.332031 322.222656 233.332031 322.917969 232.640625 322.917969 C 231.945312 322.917969 231.945312 322.917969 231.25 322.917969 C 230.554688 322.917969 230.554688 322.917969 229.859375 322.917969 C 229.167969 322.917969 229.167969 322.917969 228.472656 322.917969 C 227.777344 322.917969 227.777344 322.917969 227.082031 322.917969 C 226.390625 322.917969 226.390625 322.917969 225.695312 322.917969 C 225 322.917969 225 322.917969 224.304688 322.917969 C 223.609375 322.917969 223.609375 322.917969 222.917969 322.222656 C 222.222656 322.222656 222.222656 322.222656 221.527344 321.527344 C 220.832031 321.527344 220.832031 320.832031 220.140625 320.832031 C 219.445312 320.832031 219.445312 320.140625 218.75 320.140625 C 218.75 320.140625 218.75 320.140625 218.054688 320.140625 C 218.054688 320.140625 217.359375 319.445312 217.359375 319.445312 C 217.359375 319.445312 216.667969 318.75 216.667969 318.75 L 164.582031 261.109375 C 159.722656 255.554688 159.722656 246.527344 165.972656 241.667969 C 172.222656 236.804688 180.554688 236.804688 185.417969 243.054688 L 226.390625 288.890625 L 306.945312 193.75 C 311.804688 188.195312 320.832031 187.5 326.390625 192.359375 C 334.722656 196.527344 336.109375 205.554688 330.554688 211.109375 Z M 330.554688 211.109375 "/>
  </g>
</svg>