<?xml version="1.0" encoding="UTF-8" standalone="yes"?>
<svg xmlns="http://www.w3.org/2000/svg" xmlns:xlink="http://www.w3.org/1999/xlink" width="500px" height="500px" viewBox="0 0 500 500" version="1.1">
  <g id="surface0">
    <path style=" stroke:none;fill-rule:nonzero;fill:rgb(0.392157%,0.392157%,0.392157%);fill-opacity:1;" d="M 250 102.777344 C 330.554688 102.777344 397.222656 169.445312 397.222656 250 C 397.222656 330.554688 330.554688 397.222656 250 397.222656 C 169.445312 397.222656 102.777344 330.554688 102.777344 250 C 102.777344 169.445312 169.445312 102.777344 250 102.777344 M 250 83.332031 C 157.640625 83.332031 83.332031 157.640625 83.332031 250 C 83.332031 342.359375 157.640625 416.667969 250 416.667969 C 342.359375 416.667969 416.667969 342.359375 416.667969 250 C 416.667969 157.640625 342.359375 83.332031 250 83.332031 L 250 83.332031 Z M 250 83.332031 "/>
    <path style=" stroke:none;fill-rule:nonzero;fill:rgb(0.392157%,0.392157%,0.392157%);fill-opacity:1;" d="M 163.890625 237.5 L 163.890625 237.5 C 168.054688 234.027344 174.304688 234.027344 177.777344 238.195312 L 235.417969 303.472656 C 238.890625 307.640625 238.890625 313.890625 234.722656 317.359375 L 234.722656 317.359375 C 230.554688 320.832031 224.304688 320.832031 220.832031 316.667969 L 163.195312 251.390625 C 159.722656 247.222656 159.722656 240.972656 163.890625 237.5 Z M 163.890625 237.5 "/>
    <path style=" stroke:none;fill-rule:nonzero;fill:rgb(0.392157%,0.392157%,0.392157%);fill-opacity:1;" d="M 221.527344 304.167969 L 322.222656 184.027344 C 325.695312 179.859375 331.945312 179.167969 336.109375 182.640625 L 336.109375 182.640625 C 340.277344 186.109375 340.972656 192.359375 337.5 196.527344 L 236.109375 316.667969 C 232.640625 320.832031 226.390625 321.527344 222.222656 318.054688 L 222.222656 318.054688 C 218.75 314.582031 218.054688 308.332031 221.527344 304.167969 Z M 221.527344 304.167969 "/>
  </g>
</svg>