<?xml version="1.0" encoding="UTF-8" standalone="yes"?>
<svg xmlns="http://www.w3.org/2000/svg" xmlns:xlink="http://www.w3.org/1999/xlink" width="500px" height="500px" viewBox="0 0 500 500" version="1.1">
  <g id="surface0">
    <path style=" stroke:none;fill-rule:nonzero;fill:rgb(0.392157%,0.392157%,0.392157%);fill-opacity:1;" d="M 250 83.332031 C 157.640625 83.332031 83.332031 157.640625 83.332031 250 C 83.332031 342.359375 157.640625 416.667969 250 416.667969 C 342.359375 416.667969 416.667969 342.359375 416.667969 250 C 416.667969 157.640625 342.359375 83.332031 250 83.332031 Z M 336.804688 195.832031 L 236.109375 316.667969 C 234.722656 318.054688 233.332031 318.75 231.25 319.445312 C 231.25 319.445312 230.554688 319.445312 230.554688 319.445312 C 229.859375 319.445312 229.167969 319.445312 228.472656 319.445312 C 227.777344 319.445312 227.082031 319.445312 226.390625 319.445312 C 226.390625 319.445312 225.695312 319.445312 225.695312 319.445312 C 224.304688 318.75 222.222656 318.054688 220.832031 316.667969 L 163.195312 251.390625 C 159.722656 247.222656 159.722656 240.972656 163.890625 237.5 C 168.054688 234.027344 174.304688 234.027344 177.777344 238.195312 L 228.472656 295.140625 L 322.222656 183.332031 C 325.695312 179.167969 331.945312 178.472656 336.109375 181.945312 C 340.277344 185.417969 340.277344 191.667969 336.804688 195.832031 Z M 336.804688 195.832031 "/>
  </g>
</svg>