<?xml version="1.0" encoding="UTF-8" standalone="yes"?>
<svg xmlns="http://www.w3.org/2000/svg" xmlns:xlink="http://www.w3.org/1999/xlink" width="500px" height="500px" viewBox="0 0 500 500" version="1.1">
  <g id="surface0">
    <path style=" stroke:none;fill-rule:nonzero;fill:rgb(0.392157%,0.392157%,0.392157%);fill-opacity:1;" d="M 330.554688 204.167969 L 240.277344 311.804688 C 235.417969 317.359375 226.390625 318.054688 220.832031 313.195312 L 220.832031 313.195312 C 215.277344 308.332031 214.582031 299.304688 219.445312 293.75 L 310.417969 186.109375 C 315.277344 180.554688 324.304688 179.859375 329.859375 184.722656 L 329.859375 184.722656 C 334.722656 189.582031 336.109375 198.609375 330.554688 204.167969 Z M 330.554688 204.167969 "/>
    <path style=" stroke:none;fill-rule:nonzero;fill:rgb(0.392157%,0.392157%,0.392157%);fill-opacity:1;" d="M 188.195312 235.417969 L 240.277344 293.054688 C 245.140625 298.609375 245.140625 307.640625 238.890625 312.5 L 238.890625 312.5 C 233.332031 317.359375 224.304688 317.359375 219.445312 311.109375 L 167.359375 253.472656 C 162.5 247.917969 162.5 238.890625 168.75 234.027344 L 168.75 234.027344 C 174.304688 229.859375 182.640625 229.859375 188.195312 235.417969 Z M 188.195312 235.417969 "/>
    <path style=" stroke:none;fill-rule:nonzero;fill:rgb(0.392157%,0.392157%,0.392157%);fill-opacity:1;" d="M 250 111.109375 C 326.390625 111.109375 388.890625 173.609375 388.890625 250 C 388.890625 326.390625 326.390625 388.890625 250 388.890625 C 173.609375 388.890625 111.109375 326.390625 111.109375 250 C 111.109375 173.609375 173.609375 111.109375 250 111.109375 M 250 83.332031 C 157.640625 83.332031 83.332031 157.640625 83.332031 250 C 83.332031 342.359375 157.640625 416.667969 250 416.667969 C 342.359375 416.667969 416.667969 342.359375 416.667969 250 C 416.667969 157.640625 342.359375 83.332031 250 83.332031 L 250 83.332031 Z M 250 83.332031 "/>
  </g>
</svg>