<?xml version="1.0" encoding="UTF-8" standalone="no"?>
<!-- Generator: Adobe Illustrator 21.0.0, SVG Export Plug-In . SVG Version: 6.00 Build 0)  -->

<svg
   xmlns:dc="http://purl.org/dc/elements/1.1/"
   xmlns:cc="http://creativecommons.org/ns#"
   xmlns:rdf="http://www.w3.org/1999/02/22-rdf-syntax-ns#"
   xmlns:svg="http://www.w3.org/2000/svg"
   xmlns="http://www.w3.org/2000/svg"
   xmlns:sodipodi="http://sodipodi.sourceforge.net/DTD/sodipodi-0.dtd"
   xmlns:inkscape="http://www.inkscape.org/namespaces/inkscape"
   version="1.1"
   id="Layer_1"
   x="0px"
   y="0px"
   width="500px"
   height="500px"
   viewBox="0 0 500 500"
   enable-background="new 0 0 500 500"
   xml:space="preserve"
   inkscape:version="0.91 r13725"
   sodipodi:docname="timesheet.svg"><metadata
     id="metadata4169"><rdf:RDF><cc:Work
         rdf:about=""><dc:format>image/svg+xml</dc:format><dc:type
           rdf:resource="http://purl.org/dc/dcmitype/StillImage" /></cc:Work></rdf:RDF></metadata><defs
     id="defs4167" /><sodipodi:namedview
     pagecolor="#ffffff"
     bordercolor="#666666"
     borderopacity="1"
     objecttolerance="10"
     gridtolerance="10"
     guidetolerance="10"
     inkscape:pageopacity="0"
     inkscape:pageshadow="2"
     inkscape:window-width="640"
     inkscape:window-height="480"
     id="namedview4165"
     showgrid="false"
     inkscape:zoom="3.404"
     inkscape:cx="214.92474"
     inkscape:cy="251.065"
     inkscape:current-layer="Layer_1" /><rect
     x="193.6"
     y="167.5"
     fill="#231F20"
     width="138.9"
     height="14.9"
     id="rect4137" /><rect
     x="193.6"
     y="215.9"
     fill="#231F20"
     width="138.9"
     height="14.9"
     id="rect4139" /><path
     fill="none"
     d="M294.6,327.1c0,12.2-2.4,23.9-6.5,34.6h58.3c7.7,0,13.9-6.2,13.9-13.9V146.5c0-7.7-6.2-13.9-13.9-13.9H179.7  c-7.7,0-13.9,6.2-13.9,13.9v90.6c10.3-3.7,21.3-5.9,32.8-5.9C251.6,231.2,294.6,274.2,294.6,327.1z"
     id="path4141" /><path
     d="M346.4,118.7H179.7c-15.3,0-27.8,12.5-27.8,27.8v96.9c4.4-2.5,9.1-4.5,13.9-6.3v-90.6c0-7.7,6.2-13.9,13.9-13.9h166.7  c7.7,0,13.9,6.2,13.9,13.9v201.4c0,7.7-6.2,13.9-13.9,13.9H288c-1.9,4.8-4.1,9.5-6.7,13.9h65.1c15.3,0,27.8-12.5,27.8-27.8V146.5  C374.2,131.2,361.7,118.7,346.4,118.7z"
     id="path4143" /><path
     fill="none"
     d="M193.6,264.3H242c-12.4-8.4-27.3-13.3-43.3-13.3c-42.7,0-77.3,34.6-77.3,77.3s34.6,77.3,77.3,77.3  s77.3-34.6,77.3-77.3c0-18.7-6.6-35.8-17.7-49.2h-64.7V264.3z"
     id="path4145" /><path
     d="M332.5,264.3H271c4,4.6,7.5,9.6,10.6,14.9h50.9V264.3z"
     id="path4147" /><path
     fill="none"
     d="M193.6,327.6v-14.9h80.7c-2.6-12.6-8.2-24-16-33.5c-4.7-5.7-10.2-10.7-16.3-14.9c-12.4-8.4-27.3-13.3-43.3-13.3  c-42.7,0-77.3,34.6-77.3,77.3s34.6,77.3,77.3,77.3s77.3-34.6,77.3-77.3c0-0.3,0-0.5,0-0.8H193.6z"
     id="path4151" /><path
     d="M332.5,312.7h-39.1c0.7,4.7,1.1,9.5,1.1,14.4c0,0.1,0,0.3,0,0.4h37.9V312.7z"
     id="path4153" /><path
     d="M276,327.8c0-42.7-34.6-77.3-77.3-77.3s-77.3,34.6-77.3,77.3s34.6,77.3,77.3,77.3S276,370.5,276,327.8z M198.7,390.3  c-34.5,0-62.6-28.1-62.6-62.6s28.1-62.6,62.6-62.6s62.6,28.1,62.6,62.6S233.2,390.3,198.7,390.3z"
     id="path4159" /><polygon
     points="191.3,332.4 191.3,332.4 191.3,332.4 "
     id="polygon4161" /><polygon
     points="206,326.3 206,281.1 191.3,281.1 191.3,332.4 191.3,332.4 223.8,364.9 234.3,354.5 "
     id="polygon4163" /></svg>