<?xml version="1.0" encoding="UTF-8" standalone="yes"?>
<svg xmlns="http://www.w3.org/2000/svg" xmlns:xlink="http://www.w3.org/1999/xlink" width="500px" height="500px" viewBox="0 0 500 500" version="1.1">
  <g id="surface0">
    <path style=" stroke:none;fill-rule:nonzero;fill:rgb(0%,0%,0%);fill-opacity:1;" d="M 252.777344 265.972656 C 252.777344 265.972656 253.472656 265.972656 253.472656 265.277344 C 253.472656 265.277344 253.472656 265.972656 252.777344 265.972656 Z M 252.777344 265.972656 "/>
    <path style=" stroke:none;fill-rule:nonzero;fill:rgb(0%,0%,0%);fill-opacity:1;" d="M 284.722656 333.332031 L 284.722656 333.332031 C 280.554688 333.332031 277.777344 330.554688 277.777344 326.390625 L 277.777344 208.332031 C 277.777344 204.167969 280.554688 201.390625 284.722656 201.390625 L 284.722656 201.390625 C 288.890625 201.390625 291.667969 204.167969 291.667969 208.332031 L 291.667969 326.390625 C 291.667969 329.859375 288.890625 333.332031 284.722656 333.332031 Z M 284.722656 333.332031 "/>
    <path style=" stroke:none;fill-rule:nonzero;fill:rgb(0%,0%,0%);fill-opacity:1;" d="M 354.859375 174.304688 L 354.859375 174.304688 C 354.859375 178.472656 352.082031 181.25 347.917969 181.25 L 153.472656 181.25 C 149.304688 181.25 146.527344 178.472656 146.527344 174.304688 L 146.527344 174.304688 C 146.527344 170.140625 149.304688 167.359375 153.472656 167.359375 L 347.917969 167.359375 C 351.390625 167.359375 354.859375 170.140625 354.859375 174.304688 Z M 354.859375 174.304688 "/>
    <path style=" stroke:none;fill-rule:nonzero;fill:rgb(0%,0%,0%);fill-opacity:1;" d="M 250 333.332031 L 250 333.332031 C 245.832031 333.332031 243.054688 330.554688 243.054688 326.390625 L 243.054688 208.332031 C 243.054688 204.167969 245.832031 201.390625 250 201.390625 L 250 201.390625 C 254.167969 201.390625 256.945312 204.167969 256.945312 208.332031 L 256.945312 326.390625 C 256.945312 329.859375 254.167969 333.332031 250 333.332031 Z M 250 333.332031 "/>
    <path style=" stroke:none;fill-rule:nonzero;fill:rgb(0%,0%,0%);fill-opacity:1;" d="M 215.972656 333.332031 L 215.972656 333.332031 C 211.804688 333.332031 209.027344 330.554688 209.027344 326.390625 L 209.027344 208.332031 C 209.027344 204.167969 211.804688 201.390625 215.972656 201.390625 L 215.972656 201.390625 C 220.140625 201.390625 222.917969 204.167969 222.917969 208.332031 L 222.917969 326.390625 C 222.917969 329.859375 219.445312 333.332031 215.972656 333.332031 Z M 215.972656 333.332031 "/>
    <path style=" stroke:none;fill-rule:nonzero;fill:rgb(0%,0%,0%);fill-opacity:1;" d="M 313.195312 181.25 L 313.195312 340.972656 C 313.195312 348.609375 306.945312 354.859375 299.304688 354.859375 L 202.082031 354.859375 C 194.445312 354.859375 188.195312 348.609375 188.195312 340.972656 L 188.195312 181.25 L 313.195312 181.25 M 327.082031 167.359375 L 174.304688 167.359375 L 174.304688 340.972656 C 174.304688 356.25 186.804688 368.75 202.082031 368.75 L 299.304688 368.75 C 314.582031 368.75 327.082031 356.25 327.082031 340.972656 L 327.082031 167.359375 L 327.082031 167.359375 Z M 327.082031 167.359375 "/>
    <path style=" stroke:none;fill-rule:nonzero;fill:rgb(0%,0%,0%);fill-opacity:1;" d="M 271.527344 146.527344 C 275.695312 146.527344 278.472656 149.304688 278.472656 153.472656 L 278.472656 167.359375 L 222.917969 167.359375 L 222.917969 153.472656 C 222.917969 149.304688 225.695312 146.527344 229.859375 146.527344 L 271.527344 146.527344 M 271.527344 132.640625 L 229.859375 132.640625 C 218.054688 132.640625 209.027344 141.667969 209.027344 153.472656 L 209.027344 181.25 L 292.359375 181.25 L 292.359375 153.472656 C 292.359375 141.667969 283.332031 132.640625 271.527344 132.640625 L 271.527344 132.640625 Z M 271.527344 132.640625 "/>
  </g>
</svg>